<svg version="1.1" xmlns="http://www.w3.org/2000/svg" xmlns:xlink="http://www.w3.org/1999/xlink" width="216.60000000000002" height="261.2"><defs><linearGradient id="yXclvDCEKiTk" x1="300px" x2="400px" y1="341.5px" y2="1293.000002861023px" gradientUnits="userSpaceOnUse"><stop offset="0" stop-color="rgb(255,193,7)" stop-opacity="1"/><stop offset="1" stop-color="rgb(211,211,211)" stop-opacity="1"/></linearGradient><linearGradient id="KfdxPumQkkJp" x1="500px" x2="1303.0000007152557px" y1="1995.9000042915345px" y2="607.5000014305115px" gradientUnits="userSpaceOnUse"><stop offset="0" stop-color="rgb(211,211,211)" stop-opacity="1"/><stop offset="1" stop-color="rgb(29,122,218)" stop-opacity="1"/></linearGradient><linearGradient id="UVBzNXDbttbB" x1="500px" x2="400px" y1="1995.9000042915345px" y2="1701.7000035762787px" gradientUnits="userSpaceOnUse"><stop offset="0" stop-color="rgb(211,211,211)" stop-opacity="1"/><stop offset="1" stop-color="rgb(220,71,125)" stop-opacity="1"/></linearGradient><linearGradient id="ZdBXdPqicwCN" x1="400px" x2="1303.0000007152557px" y1="1293.000002861023px" y2="740.5000021457672px" gradientUnits="userSpaceOnUse"><stop offset="0" stop-color="rgb(211,211,211)" stop-opacity="1"/><stop offset="1" stop-color="rgb(29,122,218)" stop-opacity="1"/></linearGradient><linearGradient id="sNZeIhRVOIPm" x1="400px" x2="400px" y1="1371.000002861023px" y2="1618.7000035762787px" gradientUnits="userSpaceOnUse"><stop offset="0" stop-color="rgb(211,211,211)" stop-opacity="1"/><stop offset="1" stop-color="rgb(220,71,125)" stop-opacity="1"/></linearGradient><linearGradient id="sxqGWSTRGpau" x1="400px" x2="1303.0000007152557px" y1="1618.7000035762787px" y2="474.50000071525574px" gradientUnits="userSpaceOnUse"><stop offset="0" stop-color="rgb(220,71,125)" stop-opacity="1"/><stop offset="1" stop-color="rgb(29,122,218)" stop-opacity="1"/></linearGradient><linearGradient id="AXSxMtgMmDvt" x1="400px" x2="1303.0000007152557px" y1="1618.7000035762787px" y2="341.5px" gradientUnits="userSpaceOnUse"><stop offset="0" stop-color="rgb(220,71,125)" stop-opacity="1"/><stop offset="1" stop-color="rgb(29,122,218)" stop-opacity="1"/></linearGradient></defs><g transform="translate(28.1,4.6000000000000005) scale(0.1,0.1)"><path fill="rgb(244,236,255)" stroke="rgb(255,255,255)" paint-order="fill stroke markers" d=" M 801.5000003576279 -44 L 1874.0000007152557 -44 L 1874.0000007152557 -44 A 8 8 0 0 1 1882.0000007152557 -36 L 1882.0000007152557 2555.6000042915343 L 1882.0000007152557 2555.6000042915343 A 8 8 0 0 1 1874.0000007152557 2563.6000042915343 L -271 2563.6000042915343 L -271 2563.6000042915343 A 8 8 0 0 1 -279 2555.6000042915343 L -279 -36 L -279 -36 A 8 8 0 0 1 -271 -44 L 801.5000003576279 -44 Z" fill-opacity="1" stroke-opacity="1" stroke-miterlimit="10" stroke-width="2"/><text fill="rgb(0,0,0)" stroke="none" font-family="Avenir, Helvetica, Arial, sans-serif" font-size="32px" font-style="normal" font-weight="bold" text-decoration="normal" x="801.5000003576279" y="31" text-anchor="middle" dominant-baseline="text-after-edge" fill-opacity="1">.</text><path fill="rgb(255,255,255)" stroke="rgb(211,211,211)" paint-order="fill stroke markers" d=" M 300 157.5 L 669.5 157.5 L 669.5 157.5 A 8 8 0 0 1 677.5 165.5 L 677.5 434.5 L 677.5 434.5 A 8 8 0 0 1 669.5 442.5 L -69.5 442.5 L -69.5 442.5 A 8 8 0 0 1 -77.5 434.5 L -77.5 165.5 L -77.5 165.5 A 8 8 0 0 1 -69.5 157.5 L 300 157.5 Z" fill-opacity="1" stroke-opacity="1" stroke-miterlimit="10"/><text fill="rgb(0,0,0)" stroke="none" font-family="Avenir, Helvetica, Arial, sans-serif" font-size="32px" font-style="normal" font-weight="bold" text-decoration="normal" x="300" y="232.5" text-anchor="middle" dominant-baseline="text-after-edge" fill-opacity="1">outputs.tf</text><path fill="rgb(255,255,255)" stroke="rgb(211,211,211)" paint-order="fill stroke markers" d=" M 1303.0000007152557 157.5 L 1672.5000007152557 157.5 L 1672.5000007152557 157.5 A 8 8 0 0 1 1680.5000007152557 165.5 L 1680.5000007152557 833.5000021457672 L 1680.5000007152557 833.5000021457672 A 8 8 0 0 1 1672.5000007152557 841.5000021457672 L 933.5000007152557 841.5000021457672 L 933.5000007152557 841.5000021457672 A 8 8 0 0 1 925.5000007152557 833.5000021457672 L 925.5000007152557 165.5 L 925.5000007152557 165.5 A 8 8 0 0 1 933.5000007152557 157.5 L 1303.0000007152557 157.5 Z" fill-opacity="1" stroke-opacity="1" stroke-miterlimit="10"/><text fill="rgb(0,0,0)" stroke="none" font-family="Avenir, Helvetica, Arial, sans-serif" font-size="32px" font-style="normal" font-weight="bold" text-decoration="normal" x="1303.0000007152557" y="232.5" text-anchor="middle" dominant-baseline="text-after-edge" fill-opacity="1">variables.tf</text><path fill="rgb(255,255,255)" stroke="rgb(211,211,211)" paint-order="fill stroke markers" d=" M 483.6 1088.000002861023 L 995.7 1088.000002861023 L 995.7 1088.000002861023 A 8 8 0 0 1 1003.7 1096.000002861023 L 1003.7 2354.1000042915343 L 1003.7 2354.1000042915343 A 8 8 0 0 1 995.7 2362.1000042915343 L -28.5 2362.1000042915343 L -28.5 2362.1000042915343 A 8 8 0 0 1 -36.5 2354.1000042915343 L -36.5 1096.000002861023 L -36.5 1096.000002861023 A 8 8 0 0 1 -28.5 1088.000002861023 L 483.6 1088.000002861023 Z" fill-opacity="1" stroke-opacity="1" stroke-miterlimit="10"/><text fill="rgb(0,0,0)" stroke="none" font-family="Avenir, Helvetica, Arial, sans-serif" font-size="32px" font-style="normal" font-weight="bold" text-decoration="normal" x="483.6" y="1163.000002861023" text-anchor="middle" dominant-baseline="text-after-edge" fill-opacity="1">main.tf</text><path fill="rgb(255,255,255)" stroke="rgb(0,0,0)" paint-order="fill stroke markers" d=" M 500 1882.7000042915345 L 892.2 1882.7000042915345 L 892.2 1882.7000042915345 A 8 8 0 0 1 900.2 1890.7000042915345 L 900.2 2250.6000042915343 L 900.2 2250.6000042915343 A 8 8 0 0 1 892.2 2258.6000042915343 L 107.80000000000001 2258.6000042915343 L 107.80000000000001 2258.6000042915343 A 8 8 0 0 1 99.80000000000001 2250.6000042915343 L 99.80000000000001 1890.7000042915345 L 99.80000000000001 1890.7000042915345 A 8 8 0 0 1 107.80000000000001 1882.7000042915345 L 500 1882.7000042915345 Z" fill-opacity="1" stroke-opacity="1" stroke-miterlimit="10" stroke-width="5"/><rect fill="rgb(255,255,255)" stroke="none" x="215.5" y="1833.7000042915345" width="569" height="96" fill-opacity="1"/><text fill="rgb(0,0,0)" stroke="none" font-family="Avenir, Helvetica, Arial, sans-serif" font-size="32px" font-style="normal" font-weight="bold" text-decoration="normal" x="500" y="1897.7000042915345" text-anchor="middle" dominant-baseline="text-after-edge" fill-opacity="1">tfe_team_organization_member</text><path fill="rgb(255,255,255)" stroke="rgb(0,0,0)" paint-order="fill stroke markers" d=" M 400 1237.000002861023 L 722 1237.000002861023 L 722 1237.000002861023 A 8 8 0 0 1 730 1245.000002861023 L 730 1419.000002861023 L 730 1419.000002861023 A 8 8 0 0 1 722 1427.000002861023 L 78 1427.000002861023 L 78 1427.000002861023 A 8 8 0 0 1 70 1419.000002861023 L 70 1245.000002861023 L 70 1245.000002861023 A 8 8 0 0 1 78 1237.000002861023 L 400 1237.000002861023 Z" fill-opacity="1" stroke-opacity="1" stroke-miterlimit="10" stroke-width="5"/><rect fill="rgb(255,255,255)" stroke="none" x="244" y="1188.000002861023" width="312" height="96" fill-opacity="1"/><text fill="rgb(0,0,0)" stroke="none" font-family="Avenir, Helvetica, Arial, sans-serif" font-size="32px" font-style="normal" font-weight="bold" text-decoration="normal" x="400" y="1252.000002861023" text-anchor="middle" dominant-baseline="text-after-edge" fill-opacity="1">tfe_team_token</text><path fill="rgb(255,255,255)" stroke="rgb(0,0,0)" paint-order="fill stroke markers" d=" M 400 1562.2000035762787 L 725 1562.2000035762787 L 725 1562.2000035762787 A 8 8 0 0 1 733 1570.2000035762787 L 733 1750.2000035762787 L 733 1750.2000035762787 A 8 8 0 0 1 725 1758.2000035762787 L 75 1758.2000035762787 L 75 1758.2000035762787 A 8 8 0 0 1 67 1750.2000035762787 L 67 1570.2000035762787 L 67 1570.2000035762787 A 8 8 0 0 1 75 1562.2000035762787 L 400 1562.2000035762787 Z" fill-opacity="1" stroke-opacity="1" stroke-miterlimit="10" stroke-width="5"/><rect fill="rgb(255,255,255)" stroke="none" x="297" y="1513.2000035762787" width="206" height="96" fill-opacity="1"/><text fill="rgb(0,0,0)" stroke="none" font-family="Avenir, Helvetica, Arial, sans-serif" font-size="32px" font-style="normal" font-weight="bold" text-decoration="normal" x="400" y="1577.2000035762787" text-anchor="middle" dominant-baseline="text-after-edge" fill-opacity="1">tfe_team</text><path fill="rgb(255,255,255)" stroke="rgb(0,0,0)" paint-order="fill stroke markers" d=" M 500 1998.4000042915345 L 822 1998.4000042915345 L 822 1998.4000042915345 A 8 8 0 0 1 830 2006.4000042915345 L 830 2180.4000042915345 L 830 2180.4000042915345 A 8 8 0 0 1 822 2188.4000042915345 L 178 2188.4000042915345 L 178 2188.4000042915345 A 8 8 0 0 1 170 2180.4000042915345 L 170 2006.4000042915345 L 170 2006.4000042915345 A 8 8 0 0 1 178 1998.4000042915345 L 500 1998.4000042915345 Z" fill-opacity="1" stroke-opacity="1" stroke-miterlimit="10" stroke-width="5"/><rect fill="rgb(255,255,255)" stroke="none" x="410" y="1949.4000042915345" width="180" height="96" fill-opacity="1"/><text fill="rgb(0,0,0)" stroke="none" font-family="Avenir, Helvetica, Arial, sans-serif" font-size="32px" font-style="normal" font-weight="bold" text-decoration="normal" x="500" y="2013.4000042915345" text-anchor="middle" dominant-baseline="text-after-edge" fill-opacity="1">default</text><path fill="none" stroke="url(#yXclvDCEKiTk)" paint-order="fill stroke markers" d=" M 300 341.5 L 300 817.2500014305115 L 400 817.2500014305115 L 400 1293.000002861023" stroke-linejoin="round" stroke-miterlimit="10" stroke-width="10"/><path fill="none" stroke="url(#KfdxPumQkkJp)" paint-order="fill stroke markers" d=" M 500 1995.9000042915345 L 500 1301.700002861023 L 1303.0000007152557 1301.700002861023 L 1303.0000007152557 607.5000014305115" stroke-linejoin="round" stroke-miterlimit="10" stroke-width="10"/><path fill="none" stroke="url(#UVBzNXDbttbB)" paint-order="fill stroke markers" d=" M 500 1995.9000042915345 L 500 1848.8000039339067 L 400 1848.8000039339067 L 400 1701.7000035762787" stroke-linejoin="round" stroke-miterlimit="10" stroke-width="10"/><path fill="none" stroke="url(#ZdBXdPqicwCN)" paint-order="fill stroke markers" d=" M 400 1293.000002861023 L 400 1016.7500025033951 L 1303.0000007152557 1016.7500025033951 L 1303.0000007152557 740.5000021457672" stroke-linejoin="round" stroke-miterlimit="10" stroke-width="10"/><path fill="none" stroke="url(#sNZeIhRVOIPm)" paint-order="fill stroke markers" d=" M 400 1371.000002861023 L 400 1494.8500032186507 L 400 1494.8500032186507 L 400 1618.7000035762787" stroke-linejoin="round" stroke-miterlimit="10" stroke-width="10"/><path fill="none" stroke="url(#sxqGWSTRGpau)" paint-order="fill stroke markers" d=" M 400 1618.7000035762787 L 400 1046.6000021457671 L 1303.0000007152557 1046.6000021457671 L 1303.0000007152557 474.50000071525574" stroke-linejoin="round" stroke-miterlimit="10" stroke-width="10"/><path fill="none" stroke="url(#AXSxMtgMmDvt)" paint-order="fill stroke markers" d=" M 400 1618.7000035762787 L 400 980.1000017881394 L 1303.0000007152557 980.1000017881394 L 1303.0000007152557 341.5" stroke-linejoin="round" stroke-miterlimit="10" stroke-width="10"/><path fill="rgb(255,247,224)" stroke="rgb(255,193,7)" paint-order="fill stroke markers" d=" M 300 261 L 566 261 L 566 261 A 8 8 0 0 1 574 269 L 574 331 L 574 331 A 8 8 0 0 1 566 339 L 34 339 L 34 339 A 8 8 0 0 1 26 331 L 26 269 L 26 269 A 8 8 0 0 1 34 261 L 300 261 Z" fill-opacity="1" stroke-opacity="1" stroke-miterlimit="10" stroke-width="5"/><text fill="rgb(0,0,0)" stroke="none" font-family="Avenir, Helvetica, Arial, sans-serif" font-size="32px" font-style="normal" font-weight="bold" text-decoration="normal" x="300" y="316" text-anchor="middle" dominant-baseline="text-after-edge" fill-opacity="1">token</text><path fill="rgb(225,240,255)" stroke="rgb(29,122,218)" paint-order="fill stroke markers" d=" M 1303.0000007152557 261 L 1569.0000007152557 261 L 1569.0000007152557 261 A 8 8 0 0 1 1577.0000007152557 269 L 1577.0000007152557 331 L 1577.0000007152557 331 A 8 8 0 0 1 1569.0000007152557 339 L 1037.0000007152557 339 L 1037.0000007152557 339 A 8 8 0 0 1 1029.0000007152557 331 L 1029.0000007152557 269 L 1029.0000007152557 269 A 8 8 0 0 1 1037.0000007152557 261 L 1303.0000007152557 261 Z" fill-opacity="1" stroke-opacity="1" stroke-miterlimit="10" stroke-width="5"/><text fill="rgb(0,0,0)" stroke="none" font-family="Avenir, Helvetica, Arial, sans-serif" font-size="32px" font-style="normal" font-weight="bold" text-decoration="normal" x="1303.0000007152557" y="316" text-anchor="middle" dominant-baseline="text-after-edge" fill-opacity="1">name</text><path fill="rgb(225,240,255)" stroke="rgb(29,122,218)" paint-order="fill stroke markers" d=" M 1303.0000007152557 394.00000071525574 L 1569.0000007152557 394.00000071525574 L 1569.0000007152557 394.00000071525574 A 8 8 0 0 1 1577.0000007152557 402.00000071525574 L 1577.0000007152557 464.00000071525574 L 1577.0000007152557 464.00000071525574 A 8 8 0 0 1 1569.0000007152557 472.00000071525574 L 1037.0000007152557 472.00000071525574 L 1037.0000007152557 472.00000071525574 A 8 8 0 0 1 1029.0000007152557 464.00000071525574 L 1029.0000007152557 402.00000071525574 L 1029.0000007152557 402.00000071525574 A 8 8 0 0 1 1037.0000007152557 394.00000071525574 L 1303.0000007152557 394.00000071525574 Z" fill-opacity="1" stroke-opacity="1" stroke-miterlimit="10" stroke-width="5"/><text fill="rgb(0,0,0)" stroke="none" font-family="Avenir, Helvetica, Arial, sans-serif" font-size="32px" font-style="normal" font-weight="bold" text-decoration="normal" x="1303.0000007152557" y="449.00000071525574" text-anchor="middle" dominant-baseline="text-after-edge" fill-opacity="1">organization</text><path fill="rgb(225,240,255)" stroke="rgb(29,122,218)" paint-order="fill stroke markers" d=" M 1303.0000007152557 527.0000014305115 L 1569.0000007152557 527.0000014305115 L 1569.0000007152557 527.0000014305115 A 8 8 0 0 1 1577.0000007152557 535.0000014305115 L 1577.0000007152557 597.0000014305115 L 1577.0000007152557 597.0000014305115 A 8 8 0 0 1 1569.0000007152557 605.0000014305115 L 1037.0000007152557 605.0000014305115 L 1037.0000007152557 605.0000014305115 A 8 8 0 0 1 1029.0000007152557 597.0000014305115 L 1029.0000007152557 535.0000014305115 L 1029.0000007152557 535.0000014305115 A 8 8 0 0 1 1037.0000007152557 527.0000014305115 L 1303.0000007152557 527.0000014305115 Z" fill-opacity="1" stroke-opacity="1" stroke-miterlimit="10" stroke-width="5"/><text fill="rgb(0,0,0)" stroke="none" font-family="Avenir, Helvetica, Arial, sans-serif" font-size="32px" font-style="normal" font-weight="bold" text-decoration="normal" x="1303.0000007152557" y="582.0000014305115" text-anchor="middle" dominant-baseline="text-after-edge" fill-opacity="1">organization_membership_id</text><path fill="rgb(225,240,255)" stroke="rgb(29,122,218)" paint-order="fill stroke markers" d=" M 1303.0000007152557 660.0000021457672 L 1569.0000007152557 660.0000021457672 L 1569.0000007152557 660.0000021457672 A 8 8 0 0 1 1577.0000007152557 668.0000021457672 L 1577.0000007152557 730.0000021457672 L 1577.0000007152557 730.0000021457672 A 8 8 0 0 1 1569.0000007152557 738.0000021457672 L 1037.0000007152557 738.0000021457672 L 1037.0000007152557 738.0000021457672 A 8 8 0 0 1 1029.0000007152557 730.0000021457672 L 1029.0000007152557 668.0000021457672 L 1029.0000007152557 668.0000021457672 A 8 8 0 0 1 1037.0000007152557 660.0000021457672 L 1303.0000007152557 660.0000021457672 Z" fill-opacity="1" stroke-opacity="1" stroke-miterlimit="10" stroke-width="5"/><text fill="rgb(0,0,0)" stroke="none" font-family="Avenir, Helvetica, Arial, sans-serif" font-size="32px" font-style="normal" font-weight="bold" text-decoration="normal" x="1303.0000007152557" y="715.0000021457672" text-anchor="middle" dominant-baseline="text-after-edge" fill-opacity="1">force_regenerate</text><path fill="rgb(40,167,69)" stroke="none" paint-order="stroke fill markers" d=" M 500 2054.4000042915345 L 766 2054.4000042915345 L 766 2054.4000042915345 A 8 8 0 0 1 774 2062.4000042915345 L 774 2124.4000042915345 L 774 2124.4000042915345 A 8 8 0 0 1 766 2132.4000042915345 L 234 2132.4000042915345 L 234 2132.4000042915345 A 8 8 0 0 1 226 2124.4000042915345 L 226 2062.4000042915345 L 226 2062.4000042915345 A 8 8 0 0 1 234 2054.4000042915345 L 500 2054.4000042915345 Z" fill-opacity="1"/><text fill="rgb(255,255,255)" stroke="none" font-family="Avenir, Helvetica, Arial, sans-serif" font-size="32px" font-style="normal" font-weight="bold" text-decoration="normal" x="500" y="2109.4000042915345" text-anchor="middle" dominant-baseline="text-after-edge" fill-opacity="1">default[0]</text><path fill="rgb(40,167,69)" stroke="none" paint-order="stroke fill markers" d=" M 400 1293.000002861023 L 666 1293.000002861023 L 666 1293.000002861023 A 8 8 0 0 1 674 1301.000002861023 L 674 1363.000002861023 L 674 1363.000002861023 A 8 8 0 0 1 666 1371.000002861023 L 134 1371.000002861023 L 134 1371.000002861023 A 8 8 0 0 1 126 1363.000002861023 L 126 1301.000002861023 L 126 1301.000002861023 A 8 8 0 0 1 134 1293.000002861023 L 400 1293.000002861023 Z" fill-opacity="1"/><text fill="rgb(255,255,255)" stroke="none" font-family="Avenir, Helvetica, Arial, sans-serif" font-size="32px" font-style="normal" font-weight="bold" text-decoration="normal" x="400" y="1348.000002861023" text-anchor="middle" dominant-baseline="text-after-edge" fill-opacity="1">default</text><path fill="rgb(255,236,236)" stroke="rgb(220,71,125)" paint-order="fill stroke markers" d=" M 400 1621.2000035762787 L 666 1621.2000035762787 L 666 1621.2000035762787 A 8 8 0 0 1 674 1629.2000035762787 L 674 1691.2000035762787 L 674 1691.2000035762787 A 8 8 0 0 1 666 1699.2000035762787 L 134 1699.2000035762787 L 134 1699.2000035762787 A 8 8 0 0 1 126 1691.2000035762787 L 126 1629.2000035762787 L 126 1629.2000035762787 A 8 8 0 0 1 134 1621.2000035762787 L 400 1621.2000035762787 Z" fill-opacity="1" stroke-opacity="1" stroke-miterlimit="10" stroke-width="5"/><text fill="rgb(0,0,0)" stroke="none" font-family="Avenir, Helvetica, Arial, sans-serif" font-size="32px" font-style="normal" font-weight="bold" text-decoration="normal" x="400" y="1676.2000035762787" text-anchor="middle" dominant-baseline="text-after-edge" fill-opacity="1">default</text><g transform="scale(10,10) translate(-28.1,-4.6000000000000005)"/></g></svg>