<svg version="1.1" xmlns="http://www.w3.org/2000/svg" xmlns:xlink="http://www.w3.org/1999/xlink" width="1061.4" height="962.8000000000001"><defs><linearGradient id="DcCpFDlQNPtp" x1="1987.0000007152557px" x2="2259px" y1="2656.1333397706353px" y2="2822.1500071525575px" gradientUnits="userSpaceOnUse"><stop offset="0" stop-color="rgb(132,80,186)" stop-opacity="1"/><stop offset="1" stop-color="rgb(132,80,186)" stop-opacity="1"/></linearGradient><linearGradient id="rzExGWnvvGCa" x1="1987.0000007152557px" x2="2259px" y1="2656.1333397706353px" y2="2822.1500071525575px" gradientUnits="userSpaceOnUse"><stop offset="0" stop-color="rgb(132,80,186)" stop-opacity="1"/><stop offset="1" stop-color="rgb(132,80,186)" stop-opacity="1"/></linearGradient><linearGradient id="JdNXPqPlEDOy" x1="1303.0000007152557px" x2="1001.5000003576279px" y1="474.50000071525574px" y2="1447.3333376248684px" gradientUnits="userSpaceOnUse"><stop offset="0" stop-color="rgb(255,193,7)" stop-opacity="1"/><stop offset="1" stop-color="rgb(132,80,186)" stop-opacity="1"/></linearGradient><linearGradient id="UQUczUGvTaLB" x1="1303.0000007152557px" x2="1001.5000003576279px" y1="474.50000071525574px" y2="1447.3333376248684px" gradientUnits="userSpaceOnUse"><stop offset="0" stop-color="rgb(255,193,7)" stop-opacity="1"/><stop offset="1" stop-color="rgb(132,80,186)" stop-opacity="1"/></linearGradient><linearGradient id="CvXtPzkFkoZJ" x1="1303.0000007152557px" x2="1001.5000003576279px" y1="341.5px" y2="1447.3333376248684px" gradientUnits="userSpaceOnUse"><stop offset="0" stop-color="rgb(255,193,7)" stop-opacity="1"/><stop offset="1" stop-color="rgb(132,80,186)" stop-opacity="1"/></linearGradient><linearGradient id="sWAoIwTGTXzG" x1="1303.0000007152557px" x2="1001.5000003576279px" y1="341.5px" y2="1447.3333376248684px" gradientUnits="userSpaceOnUse"><stop offset="0" stop-color="rgb(255,193,7)" stop-opacity="1"/><stop offset="1" stop-color="rgb(132,80,186)" stop-opacity="1"/></linearGradient><linearGradient id="LZhGwtxTInvD" x1="1001.5000003576279px" x2="2306.0000014305115px" y1="1447.3333376248684px" y2="341.5px" gradientUnits="userSpaceOnUse"><stop offset="0" stop-color="rgb(132,80,186)" stop-opacity="1"/><stop offset="1" stop-color="rgb(0,0,0)" stop-opacity="1"/></linearGradient><linearGradient id="iKINhkTuTyhw" x1="500px" x2="600px" y1="1737.8333376248681px" y2="2689.3333404858913px" gradientUnits="userSpaceOnUse"><stop offset="0" stop-color="rgb(255,193,7)" stop-opacity="1"/><stop offset="1" stop-color="rgb(211,211,211)" stop-opacity="1"/></linearGradient><linearGradient id="mQTCvCyGJJyk" x1="700px" x2="1503.0000007152557px" y1="3392.2333419164024px" y2="2136.8333397706356px" gradientUnits="userSpaceOnUse"><stop offset="0" stop-color="rgb(211,211,211)" stop-opacity="1"/><stop offset="1" stop-color="rgb(29,122,218)" stop-opacity="1"/></linearGradient><linearGradient id="HZfcVykwzXkP" x1="700px" x2="600px" y1="3392.2333419164024px" y2="3098.033341201147px" gradientUnits="userSpaceOnUse"><stop offset="0" stop-color="rgb(211,211,211)" stop-opacity="1"/><stop offset="1" stop-color="rgb(220,71,125)" stop-opacity="1"/></linearGradient><linearGradient id="JQGZhCuBtJMQ" x1="600px" x2="1503.0000007152557px" y1="2689.3333404858913px" y2="1737.8333376248681px" gradientUnits="userSpaceOnUse"><stop offset="0" stop-color="rgb(211,211,211)" stop-opacity="1"/><stop offset="1" stop-color="rgb(29,122,218)" stop-opacity="1"/></linearGradient><linearGradient id="LhOQWOvzbMLt" x1="600px" x2="600px" y1="2767.3333404858913px" y2="3015.033341201147px" gradientUnits="userSpaceOnUse"><stop offset="0" stop-color="rgb(211,211,211)" stop-opacity="1"/><stop offset="1" stop-color="rgb(220,71,125)" stop-opacity="1"/></linearGradient><linearGradient id="yTchOukzLcGw" x1="600px" x2="1503.0000007152557px" y1="3015.033341201147px" y2="1870.8333383401239px" gradientUnits="userSpaceOnUse"><stop offset="0" stop-color="rgb(220,71,125)" stop-opacity="1"/><stop offset="1" stop-color="rgb(29,122,218)" stop-opacity="1"/></linearGradient><linearGradient id="DDKNJudsKbJz" x1="600px" x2="1503.0000007152557px" y1="3015.033341201147px" y2="2003.8333390553796px" gradientUnits="userSpaceOnUse"><stop offset="0" stop-color="rgb(220,71,125)" stop-opacity="1"/><stop offset="1" stop-color="rgb(29,122,218)" stop-opacity="1"/></linearGradient><linearGradient id="hmHPBnIqklbe" x1="3486.100000357628px" x2="2306.0000014305115px" y1="1181.500002861023px" y2="474.50000071525574px" gradientUnits="userSpaceOnUse"><stop offset="0" stop-color="rgb(132,80,186)" stop-opacity="1"/><stop offset="1" stop-color="rgb(0,0,0)" stop-opacity="1"/></linearGradient><linearGradient id="OIIHCmVCVsTz" x1="3486.100000357628px" x2="2306.0000014305115px" y1="1181.500002861023px" y2="607.5000014305115px" gradientUnits="userSpaceOnUse"><stop offset="0" stop-color="rgb(132,80,186)" stop-opacity="1"/><stop offset="1" stop-color="rgb(0,0,0)" stop-opacity="1"/></linearGradient><linearGradient id="xxBilzzEamqc" x1="3486.100000357628px" x2="2306.0000014305115px" y1="1181.500002861023px" y2="740.5000021457672px" gradientUnits="userSpaceOnUse"><stop offset="0" stop-color="rgb(132,80,186)" stop-opacity="1"/><stop offset="1" stop-color="rgb(0,0,0)" stop-opacity="1"/></linearGradient><linearGradient id="IRvGvFkFNtmc" x1="4003.0000007152557px" x2="2900px" y1="1571.000002861023px" y2="3507.3000078678133px" gradientUnits="userSpaceOnUse"><stop offset="0" stop-color="rgb(211,211,211)" stop-opacity="1"/><stop offset="1" stop-color="rgb(29,122,218)" stop-opacity="1"/></linearGradient><linearGradient id="KIBvXAyDVpKy" x1="4003.0000007152557px" x2="2900px" y1="1571.000002861023px" y2="3241.300006437302px" gradientUnits="userSpaceOnUse"><stop offset="0" stop-color="rgb(211,211,211)" stop-opacity="1"/><stop offset="1" stop-color="rgb(29,122,218)" stop-opacity="1"/></linearGradient><linearGradient id="EURlWmWTFzZO" x1="4003.0000007152557px" x2="2900px" y1="1571.000002861023px" y2="4172.300011444092px" gradientUnits="userSpaceOnUse"><stop offset="0" stop-color="rgb(211,211,211)" stop-opacity="1"/><stop offset="1" stop-color="rgb(29,122,218)" stop-opacity="1"/></linearGradient><linearGradient id="TmflMTfCRVvm" x1="4003.0000007152557px" x2="2900px" y1="1571.000002861023px" y2="3108.300005722046px" gradientUnits="userSpaceOnUse"><stop offset="0" stop-color="rgb(211,211,211)" stop-opacity="1"/><stop offset="1" stop-color="rgb(29,122,218)" stop-opacity="1"/></linearGradient><linearGradient id="TqTkGRndTQwz" x1="4003.0000007152557px" x2="2900px" y1="1571.000002861023px" y2="3640.300008583069px" gradientUnits="userSpaceOnUse"><stop offset="0" stop-color="rgb(211,211,211)" stop-opacity="1"/><stop offset="1" stop-color="rgb(29,122,218)" stop-opacity="1"/></linearGradient><linearGradient id="yTagRJIJxJIT" x1="4003.0000007152557px" x2="2900px" y1="1571.000002861023px" y2="3773.3000092983248px" gradientUnits="userSpaceOnUse"><stop offset="0" stop-color="rgb(211,211,211)" stop-opacity="1"/><stop offset="1" stop-color="rgb(29,122,218)" stop-opacity="1"/></linearGradient><linearGradient id="fyALbciDvMyp" x1="4003.0000007152557px" x2="2900px" y1="1571.000002861023px" y2="3374.3000071525576px" gradientUnits="userSpaceOnUse"><stop offset="0" stop-color="rgb(211,211,211)" stop-opacity="1"/><stop offset="1" stop-color="rgb(29,122,218)" stop-opacity="1"/></linearGradient><linearGradient id="rgaQVTIbTCPk" x1="4003.0000007152557px" x2="2900px" y1="1571.000002861023px" y2="3906.3000100135805px" gradientUnits="userSpaceOnUse"><stop offset="0" stop-color="rgb(211,211,211)" stop-opacity="1"/><stop offset="1" stop-color="rgb(29,122,218)" stop-opacity="1"/></linearGradient><linearGradient id="wmxaAwrRKUms" x1="4103.000000715256px" x2="4003.0000007152557px" y1="2190.9000042915345px" y2="1571.000002861023px" gradientUnits="userSpaceOnUse"><stop offset="0" stop-color="rgb(211,211,211)" stop-opacity="1"/><stop offset="1" stop-color="rgb(211,211,211)" stop-opacity="1"/></linearGradient><linearGradient id="gafDSLWuMcIg" x1="4003.0000007152557px" x2="2900px" y1="1899.2000035762787px" y2="4039.3000107288362px" gradientUnits="userSpaceOnUse"><stop offset="0" stop-color="rgb(211,211,211)" stop-opacity="1"/><stop offset="1" stop-color="rgb(29,122,218)" stop-opacity="1"/></linearGradient><linearGradient id="JfHTbTIXDugP" x1="4003.0000007152557px" x2="4003.0000007152557px" y1="1821.2000035762787px" y2="1571.000002861023px" gradientUnits="userSpaceOnUse"><stop offset="0" stop-color="rgb(211,211,211)" stop-opacity="1"/><stop offset="1" stop-color="rgb(211,211,211)" stop-opacity="1"/></linearGradient><linearGradient id="yWkcGcQbtuzi" x1="3176.5px" x2="3770.5000007152557px" y1="1565.0000035762787px" y2="2288.4000042915345px" gradientUnits="userSpaceOnUse"><stop offset="0" stop-color="rgb(255,193,7)" stop-opacity="1"/><stop offset="1" stop-color="rgb(211,211,211)" stop-opacity="1"/></linearGradient><linearGradient id="XOQePcwDOeWC" x1="3176.5px" x2="3729.0000007152557px" y1="1698.0000042915344px" y2="1860.2000035762787px" gradientUnits="userSpaceOnUse"><stop offset="0" stop-color="rgb(255,193,7)" stop-opacity="1"/><stop offset="1" stop-color="rgb(211,211,211)" stop-opacity="1"/></linearGradient><linearGradient id="zUkKkpAtgeIb" x1="3176.5px" x2="3729.0000007152557px" y1="1432.000002861023px" y2="1532.000002861023px" gradientUnits="userSpaceOnUse"><stop offset="0" stop-color="rgb(255,193,7)" stop-opacity="1"/><stop offset="1" stop-color="rgb(211,211,211)" stop-opacity="1"/></linearGradient></defs><g transform="translate(57.7,9.200000000000001) scale(0.2,0.2)"><path fill="rgb(244,236,255)" stroke="rgb(255,255,255)" paint-order="fill stroke markers" d=" M 2364.600000357628 -44 L 5007.700000715256 -44 L 5007.700000715256 -44 A 8 8 0 0 1 5015.700000715256 -36 L 5015.700000715256 4757.300011444092 L 5015.700000715256 4757.300011444092 A 8 8 0 0 1 5007.700000715256 4765.300011444092 L -278.5 4765.300011444092 L -278.5 4765.300011444092 A 8 8 0 0 1 -286.5 4757.300011444092 L -286.5 -36 L -286.5 -36 A 8 8 0 0 1 -278.5 -44 L 2364.600000357628 -44 Z" fill-opacity="1" stroke-opacity="1" stroke-miterlimit="10" stroke-width="2"/><text fill="rgb(0,0,0)" stroke="none" font-family="Avenir, Helvetica, Arial, sans-serif" font-size="32px" font-style="normal" font-weight="bold" text-decoration="normal" x="2364.600000357628" y="31" text-anchor="middle" dominant-baseline="text-after-edge" fill-opacity="1">.</text><path fill="rgb(255,255,255)" stroke="rgb(211,211,211)" paint-order="fill stroke markers" d=" M 300 157.5 L 669.5 157.5 L 669.5 157.5 A 8 8 0 0 1 677.5 165.5 L 677.5 434.5 L 677.5 434.5 A 8 8 0 0 1 669.5 442.5 L -69.5 442.5 L -69.5 442.5 A 8 8 0 0 1 -77.5 434.5 L -77.5 165.5 L -77.5 165.5 A 8 8 0 0 1 -69.5 157.5 L 300 157.5 Z" fill-opacity="1" stroke-opacity="1" stroke-miterlimit="10"/><text fill="rgb(0,0,0)" stroke="none" font-family="Avenir, Helvetica, Arial, sans-serif" font-size="32px" font-style="normal" font-weight="bold" text-decoration="normal" x="300" y="232.5" text-anchor="middle" dominant-baseline="text-after-edge" fill-opacity="1">variables.tf</text><path fill="rgb(255,255,255)" stroke="rgb(211,211,211)" paint-order="fill stroke markers" d=" M 2364.600000357628 1080.500002861023 L 4806.200000715256 1080.500002861023 L 4806.200000715256 1080.500002861023 A 8 8 0 0 1 4814.200000715256 1088.500002861023 L 4814.200000715256 4555.800011444092 L 4814.200000715256 4555.800011444092 A 8 8 0 0 1 4806.200000715256 4563.800011444092 L -77 4563.800011444092 L -77 4563.800011444092 A 8 8 0 0 1 -85 4555.800011444092 L -85 1088.500002861023 L -85 1088.500002861023 A 8 8 0 0 1 -77 1080.500002861023 L 2364.600000357628 1080.500002861023 Z" fill-opacity="1" stroke-opacity="1" stroke-miterlimit="10"/><text fill="rgb(0,0,0)" stroke="none" font-family="Avenir, Helvetica, Arial, sans-serif" font-size="32px" font-style="normal" font-weight="bold" text-decoration="normal" x="2364.600000357628" y="1155.500002861023" text-anchor="middle" dominant-baseline="text-after-edge" fill-opacity="1">main.tf</text><path fill="rgb(255,255,255)" stroke="rgb(211,211,211)" paint-order="fill stroke markers" d=" M 2306.0000014305115 157.5 L 2675.5000014305115 157.5 L 2675.5000014305115 157.5 A 8 8 0 0 1 2683.5000014305115 165.5 L 2683.5000014305115 833.5000021457672 L 2683.5000014305115 833.5000021457672 A 8 8 0 0 1 2675.5000014305115 841.5000021457672 L 1936.5000014305115 841.5000021457672 L 1936.5000014305115 841.5000021457672 A 8 8 0 0 1 1928.5000014305115 833.5000021457672 L 1928.5000014305115 165.5 L 1928.5000014305115 165.5 A 8 8 0 0 1 1936.5000014305115 157.5 L 2306.0000014305115 157.5 Z" fill-opacity="1" stroke-opacity="1" stroke-miterlimit="10"/><text fill="rgb(0,0,0)" stroke="none" font-family="Avenir, Helvetica, Arial, sans-serif" font-size="32px" font-style="normal" font-weight="bold" text-decoration="normal" x="2306.0000014305115" y="232.5" text-anchor="middle" dominant-baseline="text-after-edge" fill-opacity="1">unknown file</text><path fill="rgb(255,255,255)" stroke="rgb(211,211,211)" paint-order="fill stroke markers" d=" M 1303.0000007152557 157.5 L 1672.5000007152557 157.5 L 1672.5000007152557 157.5 A 8 8 0 0 1 1680.5000007152557 165.5 L 1680.5000007152557 567.5000007152557 L 1680.5000007152557 567.5000007152557 A 8 8 0 0 1 1672.5000007152557 575.5000007152557 L 933.5000007152557 575.5000007152557 L 933.5000007152557 575.5000007152557 A 8 8 0 0 1 925.5000007152557 567.5000007152557 L 925.5000007152557 165.5 L 925.5000007152557 165.5 A 8 8 0 0 1 933.5000007152557 157.5 L 1303.0000007152557 157.5 Z" fill-opacity="1" stroke-opacity="1" stroke-miterlimit="10"/><text fill="rgb(0,0,0)" stroke="none" font-family="Avenir, Helvetica, Arial, sans-serif" font-size="32px" font-style="normal" font-weight="bold" text-decoration="normal" x="1303.0000007152557" y="232.5" text-anchor="middle" dominant-baseline="text-after-edge" fill-opacity="1">outputs.tf</text><path fill="none" stroke="url(#DcCpFDlQNPtp)" paint-order="fill stroke markers" d=" M 1987.0000007152557 2656.1333397706353 L 2123.000000357628 2656.1333397706353 L 2123.000000357628 2822.1500071525575 L 2259 2822.1500071525575" stroke-linejoin="round" stroke-miterlimit="10" stroke-width="10"/><path fill="none" stroke="url(#rzExGWnvvGCa)" paint-order="fill stroke markers" d=" M 1987.0000007152557 2656.1333397706353 L 2123.000000357628 2656.1333397706353 L 2123.000000357628 2822.1500071525575 L 2259 2822.1500071525575" stroke-linejoin="round" stroke-miterlimit="10" stroke-width="10"/><path fill="rgb(255,255,255)" stroke="rgb(132,80,186)" paint-order="fill stroke markers" d=" M 1001.5000003576279 1452.3333376248684 L 1974.0000007152557 1452.3333376248684 L 1974.0000007152557 1452.3333376248684 A 8 8 0 0 1 1982.0000007152557 1460.3333376248684 L 1982.0000007152557 3851.9333419164022 L 1982.0000007152557 3851.9333419164022 A 8 8 0 0 1 1974.0000007152557 3859.9333419164022 L 29 3859.9333419164022 L 29 3859.9333419164022 A 8 8 0 0 1 21 3851.9333419164022 L 21 1460.3333376248684 L 21 1460.3333376248684 A 8 8 0 0 1 29 1452.3333376248684 L 1001.5000003576279 1452.3333376248684 Z" fill-opacity="1" stroke-opacity="1" stroke-miterlimit="10" stroke-width="10"/><text fill="rgb(132,80,186)" stroke="none" font-family="Avenir, Helvetica, Arial, sans-serif" font-size="32px" font-style="normal" font-weight="bold" text-decoration="normal" x="1001.5000003576279" y="1512.3333376248684" text-anchor="middle" dominant-baseline="text-after-edge" fill-opacity="1">tfe_team</text><path fill="rgb(255,255,255)" stroke="rgb(132,80,186)" paint-order="fill stroke markers" d=" M 3486.100000357628 1186.500002861023 L 4700.200000715256 1186.500002861023 L 4700.200000715256 1186.500002861023 A 8 8 0 0 1 4708.200000715256 1194.500002861023 L 4708.200000715256 4449.800011444092 L 4708.200000715256 4449.800011444092 A 8 8 0 0 1 4700.200000715256 4457.800011444092 L 2272 4457.800011444092 L 2272 4457.800011444092 A 8 8 0 0 1 2264 4449.800011444092 L 2264 1194.500002861023 L 2264 1194.500002861023 A 8 8 0 0 1 2272 1186.500002861023 L 3486.100000357628 1186.500002861023 Z" fill-opacity="1" stroke-opacity="1" stroke-miterlimit="10" stroke-width="10"/><text fill="rgb(132,80,186)" stroke="none" font-family="Avenir, Helvetica, Arial, sans-serif" font-size="32px" font-style="normal" font-weight="bold" text-decoration="normal" x="3486.100000357628" y="1246.500002861023" text-anchor="middle" dominant-baseline="text-after-edge" fill-opacity="1">tfe_organization</text><path fill="rgb(255,255,255)" stroke="rgb(211,211,211)" paint-order="fill stroke markers" d=" M 500 1553.8333376248681 L 869.5 1553.8333376248681 L 869.5 1553.8333376248681 A 8 8 0 0 1 877.5 1561.8333376248681 L 877.5 1830.8333376248681 L 877.5 1830.8333376248681 A 8 8 0 0 1 869.5 1838.8333376248681 L 130.5 1838.8333376248681 L 130.5 1838.8333376248681 A 8 8 0 0 1 122.5 1830.8333376248681 L 122.5 1561.8333376248681 L 122.5 1561.8333376248681 A 8 8 0 0 1 130.5 1553.8333376248681 L 500 1553.8333376248681 Z" fill-opacity="1" stroke-opacity="1" stroke-miterlimit="10"/><text fill="rgb(0,0,0)" stroke="none" font-family="Avenir, Helvetica, Arial, sans-serif" font-size="32px" font-style="normal" font-weight="bold" text-decoration="normal" x="500" y="1628.8333376248681" text-anchor="middle" dominant-baseline="text-after-edge" fill-opacity="1">outputs.tf</text><path fill="rgb(255,255,255)" stroke="rgb(211,211,211)" paint-order="fill stroke markers" d=" M 1503.0000007152557 1553.8333376248684 L 1872.5000007152557 1553.8333376248684 L 1872.5000007152557 1553.8333376248684 A 8 8 0 0 1 1880.5000007152557 1561.8333376248684 L 1880.5000007152557 2229.8333397706356 L 1880.5000007152557 2229.8333397706356 A 8 8 0 0 1 1872.5000007152557 2237.8333397706356 L 1133.5000007152557 2237.8333397706356 L 1133.5000007152557 2237.8333397706356 A 8 8 0 0 1 1125.5000007152557 2229.8333397706356 L 1125.5000007152557 1561.8333376248684 L 1125.5000007152557 1561.8333376248684 A 8 8 0 0 1 1133.5000007152557 1553.8333376248684 L 1503.0000007152557 1553.8333376248684 Z" fill-opacity="1" stroke-opacity="1" stroke-miterlimit="10"/><text fill="rgb(0,0,0)" stroke="none" font-family="Avenir, Helvetica, Arial, sans-serif" font-size="32px" font-style="normal" font-weight="bold" text-decoration="normal" x="1503.0000007152557" y="1628.8333376248684" text-anchor="middle" dominant-baseline="text-after-edge" fill-opacity="1">variables.tf</text><path fill="rgb(255,255,255)" stroke="rgb(211,211,211)" paint-order="fill stroke markers" d=" M 683.6 2484.3333404858913 L 1195.7 2484.3333404858913 L 1195.7 2484.3333404858913 A 8 8 0 0 1 1203.7 2492.3333404858913 L 1203.7 3750.4333419164022 L 1203.7 3750.4333419164022 A 8 8 0 0 1 1195.7 3758.4333419164022 L 171.5 3758.4333419164022 L 171.5 3758.4333419164022 A 8 8 0 0 1 163.5 3750.4333419164022 L 163.5 2492.3333404858913 L 163.5 2492.3333404858913 A 8 8 0 0 1 171.5 2484.3333404858913 L 683.6 2484.3333404858913 Z" fill-opacity="1" stroke-opacity="1" stroke-miterlimit="10"/><text fill="rgb(0,0,0)" stroke="none" font-family="Avenir, Helvetica, Arial, sans-serif" font-size="32px" font-style="normal" font-weight="bold" text-decoration="normal" x="683.6" y="2559.3333404858913" text-anchor="middle" dominant-baseline="text-after-edge" fill-opacity="1">main.tf</text><path fill="rgb(255,255,255)" stroke="rgb(211,211,211)" paint-order="fill stroke markers" d=" M 2900 1289.500002861023 L 3269.5 1289.500002861023 L 3269.5 1289.500002861023 A 8 8 0 0 1 3277.5 1297.500002861023 L 3277.5 1832.5000042915344 L 3277.5 1832.5000042915344 A 8 8 0 0 1 3269.5 1840.5000042915344 L 2530.5 1840.5000042915344 L 2530.5 1840.5000042915344 A 8 8 0 0 1 2522.5 1832.5000042915344 L 2522.5 1297.500002861023 L 2522.5 1297.500002861023 A 8 8 0 0 1 2530.5 1289.500002861023 L 2900 1289.500002861023 Z" fill-opacity="1" stroke-opacity="1" stroke-miterlimit="10"/><text fill="rgb(0,0,0)" stroke="none" font-family="Avenir, Helvetica, Arial, sans-serif" font-size="32px" font-style="normal" font-weight="bold" text-decoration="normal" x="2900" y="1364.500002861023" text-anchor="middle" dominant-baseline="text-after-edge" fill-opacity="1">outputs.tf</text><path fill="rgb(255,255,255)" stroke="rgb(211,211,211)" paint-order="fill stroke markers" d=" M 2900 2874.3000050067903 L 3426.5 2874.3000050067903 L 3426.5 2874.3000050067903 A 8 8 0 0 1 3434.5 2882.3000050067903 L 3434.5 4348.300011444092 L 3434.5 4348.300011444092 A 8 8 0 0 1 3426.5 4356.300011444092 L 2373.5 4356.300011444092 L 2373.5 4356.300011444092 A 8 8 0 0 1 2365.5 4348.300011444092 L 2365.5 2882.3000050067903 L 2365.5 2882.3000050067903 A 8 8 0 0 1 2373.5 2874.3000050067903 L 2900 2874.3000050067903 Z" fill-opacity="1" stroke-opacity="1" stroke-miterlimit="10"/><text fill="rgb(0,0,0)" stroke="none" font-family="Avenir, Helvetica, Arial, sans-serif" font-size="32px" font-style="normal" font-weight="bold" text-decoration="normal" x="2900" y="2949.3000050067903" text-anchor="middle" dominant-baseline="text-after-edge" fill-opacity="1">variables.tf</text><path fill="rgb(255,255,255)" stroke="rgb(211,211,211)" paint-order="fill stroke markers" d=" M 4088.1000007152556 1288.000002861023 L 4598.700000715256 1288.000002861023 L 4598.700000715256 1288.000002861023 A 8 8 0 0 1 4606.700000715256 1296.000002861023 L 4606.700000715256 2549.1000042915343 L 4606.700000715256 2549.1000042915343 A 8 8 0 0 1 4598.700000715256 2557.1000042915343 L 3577.5000007152557 2557.1000042915343 L 3577.5000007152557 2557.1000042915343 A 8 8 0 0 1 3569.5000007152557 2549.1000042915343 L 3569.5000007152557 1296.000002861023 L 3569.5000007152557 1296.000002861023 A 8 8 0 0 1 3577.5000007152557 1288.000002861023 L 4088.1000007152556 1288.000002861023 Z" fill-opacity="1" stroke-opacity="1" stroke-miterlimit="10"/><text fill="rgb(0,0,0)" stroke="none" font-family="Avenir, Helvetica, Arial, sans-serif" font-size="32px" font-style="normal" font-weight="bold" text-decoration="normal" x="4088.1000007152556" y="1363.000002861023" text-anchor="middle" dominant-baseline="text-after-edge" fill-opacity="1">main.tf</text><path fill="rgb(255,255,255)" stroke="rgb(0,0,0)" paint-order="fill stroke markers" d=" M 600 2958.533341201147 L 925 2958.533341201147 L 925 2958.533341201147 A 8 8 0 0 1 933 2966.533341201147 L 933 3146.533341201147 L 933 3146.533341201147 A 8 8 0 0 1 925 3154.533341201147 L 275 3154.533341201147 L 275 3154.533341201147 A 8 8 0 0 1 267 3146.533341201147 L 267 2966.533341201147 L 267 2966.533341201147 A 8 8 0 0 1 275 2958.533341201147 L 600 2958.533341201147 Z" fill-opacity="1" stroke-opacity="1" stroke-miterlimit="10" stroke-width="5"/><rect fill="rgb(255,255,255)" stroke="none" x="501" y="2909.533341201147" width="198" height="96" fill-opacity="1"/><text fill="rgb(0,0,0)" stroke="none" font-family="Avenir, Helvetica, Arial, sans-serif" font-size="32px" font-style="normal" font-weight="bold" text-decoration="normal" x="600" y="2973.533341201147" text-anchor="middle" dominant-baseline="text-after-edge" fill-opacity="1">tfe_team</text><path fill="rgb(255,255,255)" stroke="rgb(0,0,0)" paint-order="fill stroke markers" d=" M 700 3279.0333419164026 L 1092.2 3279.0333419164026 L 1092.2 3279.0333419164026 A 8 8 0 0 1 1100.2 3287.0333419164026 L 1100.2 3646.9333419164022 L 1100.2 3646.9333419164022 A 8 8 0 0 1 1092.2 3654.9333419164022 L 307.8 3654.9333419164022 L 307.8 3654.9333419164022 A 8 8 0 0 1 299.8 3646.9333419164022 L 299.8 3287.0333419164026 L 299.8 3287.0333419164026 A 8 8 0 0 1 307.8 3279.0333419164026 L 700 3279.0333419164026 Z" fill-opacity="1" stroke-opacity="1" stroke-miterlimit="10" stroke-width="5"/><rect fill="rgb(255,255,255)" stroke="none" x="429" y="3230.0333419164026" width="542" height="96" fill-opacity="1"/><text fill="rgb(0,0,0)" stroke="none" font-family="Avenir, Helvetica, Arial, sans-serif" font-size="32px" font-style="normal" font-weight="bold" text-decoration="normal" x="700" y="3294.0333419164026" text-anchor="middle" dominant-baseline="text-after-edge" fill-opacity="1">tfe_team_organization_member</text><path fill="rgb(255,255,255)" stroke="rgb(0,0,0)" paint-order="fill stroke markers" d=" M 600 2633.3333404858913 L 922 2633.3333404858913 L 922 2633.3333404858913 A 8 8 0 0 1 930 2641.3333404858913 L 930 2815.3333404858913 L 930 2815.3333404858913 A 8 8 0 0 1 922 2823.3333404858913 L 278 2823.3333404858913 L 278 2823.3333404858913 A 8 8 0 0 1 270 2815.3333404858913 L 270 2641.3333404858913 L 270 2641.3333404858913 A 8 8 0 0 1 278 2633.3333404858913 L 600 2633.3333404858913 Z" fill-opacity="1" stroke-opacity="1" stroke-miterlimit="10" stroke-width="5"/><rect fill="rgb(255,255,255)" stroke="none" x="450" y="2584.3333404858913" width="300" height="96" fill-opacity="1"/><text fill="rgb(0,0,0)" stroke="none" font-family="Avenir, Helvetica, Arial, sans-serif" font-size="32px" font-style="normal" font-weight="bold" text-decoration="normal" x="600" y="2648.3333404858913" text-anchor="middle" dominant-baseline="text-after-edge" fill-opacity="1">tfe_team_token</text><path fill="rgb(255,255,255)" stroke="rgb(0,0,0)" paint-order="fill stroke markers" d=" M 4003.0000007152557 1437.000002861023 L 4325.000000715256 1437.000002861023 L 4325.000000715256 1437.000002861023 A 8 8 0 0 1 4333.000000715256 1445.000002861023 L 4333.000000715256 1619.000002861023 L 4333.000000715256 1619.000002861023 A 8 8 0 0 1 4325.000000715256 1627.000002861023 L 3681.0000007152557 1627.000002861023 L 3681.0000007152557 1627.000002861023 A 8 8 0 0 1 3673.0000007152557 1619.000002861023 L 3673.0000007152557 1445.000002861023 L 3673.0000007152557 1445.000002861023 A 8 8 0 0 1 3681.0000007152557 1437.000002861023 L 4003.0000007152557 1437.000002861023 Z" fill-opacity="1" stroke-opacity="1" stroke-miterlimit="10" stroke-width="5"/><rect fill="rgb(255,255,255)" stroke="none" x="3848.5000007152557" y="1388.000002861023" width="309" height="96" fill-opacity="1"/><text fill="rgb(0,0,0)" stroke="none" font-family="Avenir, Helvetica, Arial, sans-serif" font-size="32px" font-style="normal" font-weight="bold" text-decoration="normal" x="4003.0000007152557" y="1452.000002861023" text-anchor="middle" dominant-baseline="text-after-edge" fill-opacity="1">tfe_organization</text><path fill="rgb(255,255,255)" stroke="rgb(0,0,0)" paint-order="fill stroke markers" d=" M 4103.000000715256 2077.7000042915347 L 4495.200000715256 2077.7000042915347 L 4495.200000715256 2077.7000042915347 A 8 8 0 0 1 4503.200000715256 2085.7000042915347 L 4503.200000715256 2445.6000042915343 L 4503.200000715256 2445.6000042915343 A 8 8 0 0 1 4495.200000715256 2453.6000042915343 L 3710.800000715256 2453.6000042915343 L 3710.800000715256 2453.6000042915343 A 8 8 0 0 1 3702.800000715256 2445.6000042915343 L 3702.800000715256 2085.7000042915347 L 3702.800000715256 2085.7000042915347 A 8 8 0 0 1 3710.800000715256 2077.7000042915347 L 4103.000000715256 2077.7000042915347 Z" fill-opacity="1" stroke-opacity="1" stroke-miterlimit="10" stroke-width="5"/><rect fill="rgb(255,255,255)" stroke="none" x="3847.5000007152557" y="2028.7000042915347" width="511" height="96" fill-opacity="1"/><text fill="rgb(0,0,0)" stroke="none" font-family="Avenir, Helvetica, Arial, sans-serif" font-size="32px" font-style="normal" font-weight="bold" text-decoration="normal" x="4103.000000715256" y="2092.7000042915347" text-anchor="middle" dominant-baseline="text-after-edge" fill-opacity="1">tfe_organization_membership</text><path fill="rgb(255,255,255)" stroke="rgb(0,0,0)" paint-order="fill stroke markers" d=" M 4003.0000007152557 1765.2000035762787 L 4325.000000715256 1765.2000035762787 L 4325.000000715256 1765.2000035762787 A 8 8 0 0 1 4333.000000715256 1773.2000035762787 L 4333.000000715256 1947.2000035762787 L 4333.000000715256 1947.2000035762787 A 8 8 0 0 1 4325.000000715256 1955.2000035762787 L 3681.0000007152557 1955.2000035762787 L 3681.0000007152557 1955.2000035762787 A 8 8 0 0 1 3673.0000007152557 1947.2000035762787 L 3673.0000007152557 1773.2000035762787 L 3673.0000007152557 1773.2000035762787 A 8 8 0 0 1 3681.0000007152557 1765.2000035762787 L 4003.0000007152557 1765.2000035762787 Z" fill-opacity="1" stroke-opacity="1" stroke-miterlimit="10" stroke-width="5"/><rect fill="rgb(255,255,255)" stroke="none" x="3797.5000007152557" y="1716.2000035762787" width="411" height="96" fill-opacity="1"/><text fill="rgb(0,0,0)" stroke="none" font-family="Avenir, Helvetica, Arial, sans-serif" font-size="32px" font-style="normal" font-weight="bold" text-decoration="normal" x="4003.0000007152557" y="1780.2000035762787" text-anchor="middle" dominant-baseline="text-after-edge" fill-opacity="1">tfe_organization_token</text><path fill="rgb(255,255,255)" stroke="rgb(0,0,0)" paint-order="fill stroke markers" d=" M 700 3394.7333419164024 L 1022 3394.7333419164024 L 1022 3394.7333419164024 A 8 8 0 0 1 1030 3402.7333419164024 L 1030 3576.7333419164024 L 1030 3576.7333419164024 A 8 8 0 0 1 1022 3584.7333419164024 L 378 3584.7333419164024 L 378 3584.7333419164024 A 8 8 0 0 1 370 3576.7333419164024 L 370 3402.7333419164024 L 370 3402.7333419164024 A 8 8 0 0 1 378 3394.7333419164024 L 700 3394.7333419164024 Z" fill-opacity="1" stroke-opacity="1" stroke-miterlimit="10" stroke-width="5"/><rect fill="rgb(255,255,255)" stroke="none" x="615" y="3345.7333419164024" width="170" height="96" fill-opacity="1"/><text fill="rgb(0,0,0)" stroke="none" font-family="Avenir, Helvetica, Arial, sans-serif" font-size="32px" font-style="normal" font-weight="bold" text-decoration="normal" x="700" y="3409.7333419164024" text-anchor="middle" dominant-baseline="text-after-edge" fill-opacity="1">default</text><path fill="rgb(255,255,255)" stroke="rgb(0,0,0)" paint-order="fill stroke markers" d=" M 4103.000000715256 2193.4000042915345 L 4425.000000715256 2193.4000042915345 L 4425.000000715256 2193.4000042915345 A 8 8 0 0 1 4433.000000715256 2201.4000042915345 L 4433.000000715256 2375.4000042915345 L 4433.000000715256 2375.4000042915345 A 8 8 0 0 1 4425.000000715256 2383.4000042915345 L 3781.0000007152557 2383.4000042915345 L 3781.0000007152557 2383.4000042915345 A 8 8 0 0 1 3773.0000007152557 2375.4000042915345 L 3773.0000007152557 2201.4000042915345 L 3773.0000007152557 2201.4000042915345 A 8 8 0 0 1 3781.0000007152557 2193.4000042915345 L 4103.000000715256 2193.4000042915345 Z" fill-opacity="1" stroke-opacity="1" stroke-miterlimit="10" stroke-width="5"/><rect fill="rgb(255,255,255)" stroke="none" x="4018.0000007152557" y="2144.4000042915345" width="170" height="96" fill-opacity="1"/><text fill="rgb(0,0,0)" stroke="none" font-family="Avenir, Helvetica, Arial, sans-serif" font-size="32px" font-style="normal" font-weight="bold" text-decoration="normal" x="4103.000000715256" y="2208.4000042915345" text-anchor="middle" dominant-baseline="text-after-edge" fill-opacity="1">default</text><path fill="none" stroke="url(#JdNXPqPlEDOy)" paint-order="fill stroke markers" d=" M 1303.0000007152557 474.50000071525574 L 1303.0000007152557 960.916669170062 L 1001.5000003576279 960.916669170062 L 1001.5000003576279 1447.3333376248684" stroke-linejoin="round" stroke-miterlimit="10" stroke-width="10"/><path fill="none" stroke="url(#UQUczUGvTaLB)" paint-order="fill stroke markers" d=" M 1303.0000007152557 474.50000071525574 L 1303.0000007152557 960.916669170062 L 1001.5000003576279 960.916669170062 L 1001.5000003576279 1447.3333376248684" stroke-linejoin="round" stroke-miterlimit="10" stroke-width="10"/><path fill="none" stroke="url(#CvXtPzkFkoZJ)" paint-order="fill stroke markers" d=" M 1303.0000007152557 341.5 L 1303.0000007152557 894.4166688124342 L 1001.5000003576279 894.4166688124342 L 1001.5000003576279 1447.3333376248684" stroke-linejoin="round" stroke-miterlimit="10" stroke-width="10"/><path fill="none" stroke="url(#sWAoIwTGTXzG)" paint-order="fill stroke markers" d=" M 1303.0000007152557 341.5 L 1303.0000007152557 894.4166688124342 L 1001.5000003576279 894.4166688124342 L 1001.5000003576279 1447.3333376248684" stroke-linejoin="round" stroke-miterlimit="10" stroke-width="10"/><path fill="none" stroke="url(#LZhGwtxTInvD)" paint-order="fill stroke markers" d=" M 1001.5000003576279 1447.3333376248684 L 1001.5000003576279 894.4166688124342 L 2306.0000014305115 894.4166688124342 L 2306.0000014305115 341.5" stroke-linejoin="round" stroke-miterlimit="10" stroke-width="10"/><path fill="none" stroke="url(#iKINhkTuTyhw)" paint-order="fill stroke markers" d=" M 500 1737.8333376248681 L 500 2213.58333905538 L 600 2213.58333905538 L 600 2689.3333404858913" stroke-linejoin="round" stroke-miterlimit="10" stroke-width="10"/><path fill="none" stroke="url(#mQTCvCyGJJyk)" paint-order="fill stroke markers" d=" M 700 3392.2333419164024 L 700 2764.533340843519 L 1503.0000007152557 2764.533340843519 L 1503.0000007152557 2136.8333397706356" stroke-linejoin="round" stroke-miterlimit="10" stroke-width="10"/><path fill="none" stroke="url(#HZfcVykwzXkP)" paint-order="fill stroke markers" d=" M 700 3392.2333419164024 L 700 3245.1333415587746 L 600 3245.1333415587746 L 600 3098.033341201147" stroke-linejoin="round" stroke-miterlimit="10" stroke-width="10"/><path fill="none" stroke="url(#JQGZhCuBtJMQ)" paint-order="fill stroke markers" d=" M 600 2689.3333404858913 L 600 2213.58333905538 L 1503.0000007152557 2213.58333905538 L 1503.0000007152557 1737.8333376248681" stroke-linejoin="round" stroke-miterlimit="10" stroke-width="10"/><path fill="none" stroke="url(#LhOQWOvzbMLt)" paint-order="fill stroke markers" d=" M 600 2767.3333404858913 L 600 2891.183340843519 L 600 2891.183340843519 L 600 3015.033341201147" stroke-linejoin="round" stroke-miterlimit="10" stroke-width="10"/><path fill="none" stroke="url(#yTchOukzLcGw)" paint-order="fill stroke markers" d=" M 600 3015.033341201147 L 600 2442.9333397706355 L 1503.0000007152557 2442.9333397706355 L 1503.0000007152557 1870.8333383401239" stroke-linejoin="round" stroke-miterlimit="10" stroke-width="10"/><path fill="none" stroke="url(#DDKNJudsKbJz)" paint-order="fill stroke markers" d=" M 600 3015.033341201147 L 600 2509.4333401282634 L 1503.0000007152557 2509.4333401282634 L 1503.0000007152557 2003.8333390553796" stroke-linejoin="round" stroke-miterlimit="10" stroke-width="10"/><path fill="none" stroke="url(#hmHPBnIqklbe)" paint-order="fill stroke markers" d=" M 3486.100000357628 1181.500002861023 L 3486.100000357628 828.0000017881393 L 2306.0000014305115 828.0000017881393 L 2306.0000014305115 474.50000071525574" stroke-linejoin="round" stroke-miterlimit="10" stroke-width="10"/><path fill="none" stroke="url(#OIIHCmVCVsTz)" paint-order="fill stroke markers" d=" M 3486.100000357628 1181.500002861023 L 3486.100000357628 894.5000021457672 L 2306.0000014305115 894.5000021457672 L 2306.0000014305115 607.5000014305115" stroke-linejoin="round" stroke-miterlimit="10" stroke-width="10"/><path fill="none" stroke="url(#xxBilzzEamqc)" paint-order="fill stroke markers" d=" M 3486.100000357628 1181.500002861023 L 3486.100000357628 961.0000025033951 L 2306.0000014305115 961.0000025033951 L 2306.0000014305115 740.5000021457672" stroke-linejoin="round" stroke-miterlimit="10" stroke-width="10"/><path fill="none" stroke="url(#IRvGvFkFNtmc)" paint-order="fill stroke markers" d=" M 4003.0000007152557 1571.000002861023 L 4003.0000007152557 2539.150005364418 L 2900 2539.150005364418 L 2900 3507.3000078678133" stroke-linejoin="round" stroke-miterlimit="10" stroke-width="10"/><path fill="none" stroke="url(#KIBvXAyDVpKy)" paint-order="fill stroke markers" d=" M 4003.0000007152557 1571.000002861023 L 4003.0000007152557 2406.1500046491624 L 2900 2406.1500046491624 L 2900 3241.300006437302" stroke-linejoin="round" stroke-miterlimit="10" stroke-width="10"/><path fill="none" stroke="url(#EURlWmWTFzZO)" paint-order="fill stroke markers" d=" M 4003.0000007152557 1571.000002861023 L 4003.0000007152557 2871.6500071525575 L 2900 2871.6500071525575 L 2900 4172.300011444092" stroke-linejoin="round" stroke-miterlimit="10" stroke-width="10"/><path fill="none" stroke="url(#TmflMTfCRVvm)" paint-order="fill stroke markers" d=" M 4003.0000007152557 1571.000002861023 L 4003.0000007152557 2339.6500042915345 L 2900 2339.6500042915345 L 2900 3108.300005722046" stroke-linejoin="round" stroke-miterlimit="10" stroke-width="10"/><path fill="none" stroke="url(#TqTkGRndTQwz)" paint-order="fill stroke markers" d=" M 4003.0000007152557 1571.000002861023 L 4003.0000007152557 2605.650005722046 L 2900 2605.650005722046 L 2900 3640.300008583069" stroke-linejoin="round" stroke-miterlimit="10" stroke-width="10"/><path fill="none" stroke="url(#yTagRJIJxJIT)" paint-order="fill stroke markers" d=" M 4003.0000007152557 1571.000002861023 L 4003.0000007152557 2672.150006079674 L 2900 2672.150006079674 L 2900 3773.3000092983248" stroke-linejoin="round" stroke-miterlimit="10" stroke-width="10"/><path fill="none" stroke="url(#fyALbciDvMyp)" paint-order="fill stroke markers" d=" M 4003.0000007152557 1571.000002861023 L 4003.0000007152557 2472.6500050067903 L 2900 2472.6500050067903 L 2900 3374.3000071525576" stroke-linejoin="round" stroke-miterlimit="10" stroke-width="10"/><path fill="none" stroke="url(#rgaQVTIbTCPk)" paint-order="fill stroke markers" d=" M 4003.0000007152557 1571.000002861023 L 4003.0000007152557 2738.6500064373017 L 2900 2738.6500064373017 L 2900 3906.3000100135805" stroke-linejoin="round" stroke-miterlimit="10" stroke-width="10"/><path fill="none" stroke="url(#wmxaAwrRKUms)" paint-order="fill stroke markers" d=" M 4103.000000715256 2190.9000042915345 L 4103.000000715256 1880.9500035762787 L 4003.0000007152557 1880.9500035762787 L 4003.0000007152557 1571.000002861023" stroke-linejoin="round" stroke-miterlimit="10" stroke-width="10"/><path fill="none" stroke="url(#gafDSLWuMcIg)" paint-order="fill stroke markers" d=" M 4003.0000007152557 1899.2000035762787 L 4003.0000007152557 2969.2500071525574 L 2900 2969.2500071525574 L 2900 4039.3000107288362" stroke-linejoin="round" stroke-miterlimit="10" stroke-width="10"/><path fill="none" stroke="url(#JfHTbTIXDugP)" paint-order="fill stroke markers" d=" M 4003.0000007152557 1821.2000035762787 L 4003.0000007152557 1696.1000032186507 L 4003.0000007152557 1696.1000032186507 L 4003.0000007152557 1571.000002861023" stroke-linejoin="round" stroke-miterlimit="10" stroke-width="10"/><path fill="none" stroke="url(#yWkcGcQbtuzi)" paint-order="fill stroke markers" d=" M 3176.5 1565.0000035762787 L 3473.500000357628 1565.0000035762787 L 3473.500000357628 2288.4000042915345 L 3770.5000007152557 2288.4000042915345" stroke-linejoin="round" stroke-miterlimit="10" stroke-width="10"/><path fill="none" stroke="url(#XOQePcwDOeWC)" paint-order="fill stroke markers" d=" M 3176.5 1698.0000042915344 L 3452.750000357628 1698.0000042915344 L 3452.750000357628 1860.2000035762787 L 3729.0000007152557 1860.2000035762787" stroke-linejoin="round" stroke-miterlimit="10" stroke-width="10"/><path fill="none" stroke="url(#zUkKkpAtgeIb)" paint-order="fill stroke markers" d=" M 3176.5 1432.000002861023 L 3452.750000357628 1432.000002861023 L 3452.750000357628 1532.000002861023 L 3729.0000007152557 1532.000002861023" stroke-linejoin="round" stroke-miterlimit="10" stroke-width="10"/><path fill="rgb(225,240,255)" stroke="rgb(29,122,218)" paint-order="fill stroke markers" d=" M 300 261 L 566 261 L 566 261 A 8 8 0 0 1 574 269 L 574 331 L 574 331 A 8 8 0 0 1 566 339 L 34 339 L 34 339 A 8 8 0 0 1 26 331 L 26 269 L 26 269 A 8 8 0 0 1 34 261 L 300 261 Z" fill-opacity="1" stroke-opacity="1" stroke-miterlimit="10" stroke-width="5"/><text fill="rgb(0,0,0)" stroke="none" font-family="Avenir, Helvetica, Arial, sans-serif" font-size="32px" font-style="normal" font-weight="bold" text-decoration="normal" x="300" y="316" text-anchor="middle" dominant-baseline="text-after-edge" fill-opacity="1">token</text><path fill="rgb(255,247,224)" stroke="rgb(255,193,7)" paint-order="fill stroke markers" d=" M 500 1657.3333376248681 L 766 1657.3333376248681 L 766 1657.3333376248681 A 8 8 0 0 1 774 1665.3333376248681 L 774 1727.3333376248681 L 774 1727.3333376248681 A 8 8 0 0 1 766 1735.3333376248681 L 234 1735.3333376248681 L 234 1735.3333376248681 A 8 8 0 0 1 226 1727.3333376248681 L 226 1665.3333376248681 L 226 1665.3333376248681 A 8 8 0 0 1 234 1657.3333376248681 L 500 1657.3333376248681 Z" fill-opacity="1" stroke-opacity="1" stroke-miterlimit="10" stroke-width="5"/><text fill="rgb(0,0,0)" stroke="none" font-family="Avenir, Helvetica, Arial, sans-serif" font-size="32px" font-style="normal" font-weight="bold" text-decoration="normal" x="500" y="1712.3333376248681" text-anchor="middle" dominant-baseline="text-after-edge" fill-opacity="1">token</text><path fill="rgb(225,240,255)" stroke="rgb(29,122,218)" paint-order="fill stroke markers" d=" M 1503.0000007152557 1657.3333376248681 L 1769.0000007152557 1657.3333376248681 L 1769.0000007152557 1657.3333376248681 A 8 8 0 0 1 1777.0000007152557 1665.3333376248681 L 1777.0000007152557 1727.3333376248681 L 1777.0000007152557 1727.3333376248681 A 8 8 0 0 1 1769.0000007152557 1735.3333376248681 L 1237.0000007152557 1735.3333376248681 L 1237.0000007152557 1735.3333376248681 A 8 8 0 0 1 1229.0000007152557 1727.3333376248681 L 1229.0000007152557 1665.3333376248681 L 1229.0000007152557 1665.3333376248681 A 8 8 0 0 1 1237.0000007152557 1657.3333376248681 L 1503.0000007152557 1657.3333376248681 Z" fill-opacity="1" stroke-opacity="1" stroke-miterlimit="10" stroke-width="5"/><text fill="rgb(0,0,0)" stroke="none" font-family="Avenir, Helvetica, Arial, sans-serif" font-size="32px" font-style="normal" font-weight="bold" text-decoration="normal" x="1503.0000007152557" y="1712.3333376248681" text-anchor="middle" dominant-baseline="text-after-edge" fill-opacity="1">force_regenerate</text><path fill="rgb(225,240,255)" stroke="rgb(29,122,218)" paint-order="fill stroke markers" d=" M 1503.0000007152557 1790.3333383401239 L 1769.0000007152557 1790.3333383401239 L 1769.0000007152557 1790.3333383401239 A 8 8 0 0 1 1777.0000007152557 1798.3333383401239 L 1777.0000007152557 1860.3333383401239 L 1777.0000007152557 1860.3333383401239 A 8 8 0 0 1 1769.0000007152557 1868.3333383401239 L 1237.0000007152557 1868.3333383401239 L 1237.0000007152557 1868.3333383401239 A 8 8 0 0 1 1229.0000007152557 1860.3333383401239 L 1229.0000007152557 1798.3333383401239 L 1229.0000007152557 1798.3333383401239 A 8 8 0 0 1 1237.0000007152557 1790.3333383401239 L 1503.0000007152557 1790.3333383401239 Z" fill-opacity="1" stroke-opacity="1" stroke-miterlimit="10" stroke-width="5"/><text fill="rgb(0,0,0)" stroke="none" font-family="Avenir, Helvetica, Arial, sans-serif" font-size="32px" font-style="normal" font-weight="bold" text-decoration="normal" x="1503.0000007152557" y="1845.3333383401239" text-anchor="middle" dominant-baseline="text-after-edge" fill-opacity="1">name</text><path fill="rgb(225,240,255)" stroke="rgb(29,122,218)" paint-order="fill stroke markers" d=" M 1503.0000007152557 1923.3333390553796 L 1769.0000007152557 1923.3333390553796 L 1769.0000007152557 1923.3333390553796 A 8 8 0 0 1 1777.0000007152557 1931.3333390553796 L 1777.0000007152557 1993.3333390553796 L 1777.0000007152557 1993.3333390553796 A 8 8 0 0 1 1769.0000007152557 2001.3333390553796 L 1237.0000007152557 2001.3333390553796 L 1237.0000007152557 2001.3333390553796 A 8 8 0 0 1 1229.0000007152557 1993.3333390553796 L 1229.0000007152557 1931.3333390553796 L 1229.0000007152557 1931.3333390553796 A 8 8 0 0 1 1237.0000007152557 1923.3333390553796 L 1503.0000007152557 1923.3333390553796 Z" fill-opacity="1" stroke-opacity="1" stroke-miterlimit="10" stroke-width="5"/><text fill="rgb(0,0,0)" stroke="none" font-family="Avenir, Helvetica, Arial, sans-serif" font-size="32px" font-style="normal" font-weight="bold" text-decoration="normal" x="1503.0000007152557" y="1978.3333390553796" text-anchor="middle" dominant-baseline="text-after-edge" fill-opacity="1">organization</text><path fill="rgb(225,240,255)" stroke="rgb(29,122,218)" paint-order="fill stroke markers" d=" M 1503.0000007152557 2056.3333397706356 L 1769.0000007152557 2056.3333397706356 L 1769.0000007152557 2056.3333397706356 A 8 8 0 0 1 1777.0000007152557 2064.3333397706356 L 1777.0000007152557 2126.3333397706356 L 1777.0000007152557 2126.3333397706356 A 8 8 0 0 1 1769.0000007152557 2134.3333397706356 L 1237.0000007152557 2134.3333397706356 L 1237.0000007152557 2134.3333397706356 A 8 8 0 0 1 1229.0000007152557 2126.3333397706356 L 1229.0000007152557 2064.3333397706356 L 1229.0000007152557 2064.3333397706356 A 8 8 0 0 1 1237.0000007152557 2056.3333397706356 L 1503.0000007152557 2056.3333397706356 Z" fill-opacity="1" stroke-opacity="1" stroke-miterlimit="10" stroke-width="5"/><text fill="rgb(0,0,0)" stroke="none" font-family="Avenir, Helvetica, Arial, sans-serif" font-size="32px" font-style="normal" font-weight="bold" text-decoration="normal" x="1503.0000007152557" y="2111.3333397706356" text-anchor="middle" dominant-baseline="text-after-edge" fill-opacity="1">organization_membership_id</text><path fill="rgb(255,236,236)" stroke="rgb(220,71,125)" paint-order="fill stroke markers" d=" M 600 3017.533341201147 L 866 3017.533341201147 L 866 3017.533341201147 A 8 8 0 0 1 874 3025.533341201147 L 874 3087.533341201147 L 874 3087.533341201147 A 8 8 0 0 1 866 3095.533341201147 L 334 3095.533341201147 L 334 3095.533341201147 A 8 8 0 0 1 326 3087.533341201147 L 326 3025.533341201147 L 326 3025.533341201147 A 8 8 0 0 1 334 3017.533341201147 L 600 3017.533341201147 Z" fill-opacity="1" stroke-opacity="1" stroke-miterlimit="10" stroke-width="5"/><text fill="rgb(0,0,0)" stroke="none" font-family="Avenir, Helvetica, Arial, sans-serif" font-size="32px" font-style="normal" font-weight="bold" text-decoration="normal" x="600" y="3072.533341201147" text-anchor="middle" dominant-baseline="text-after-edge" fill-opacity="1">default</text><path fill="rgb(40,167,69)" stroke="none" paint-order="stroke fill markers" d=" M 700 3450.7333419164024 L 966 3450.7333419164024 L 966 3450.7333419164024 A 8 8 0 0 1 974 3458.7333419164024 L 974 3520.7333419164024 L 974 3520.7333419164024 A 8 8 0 0 1 966 3528.7333419164024 L 434 3528.7333419164024 L 434 3528.7333419164024 A 8 8 0 0 1 426 3520.7333419164024 L 426 3458.7333419164024 L 426 3458.7333419164024 A 8 8 0 0 1 434 3450.7333419164024 L 700 3450.7333419164024 Z" fill-opacity="1"/><text fill="rgb(255,255,255)" stroke="none" font-family="Avenir, Helvetica, Arial, sans-serif" font-size="32px" font-style="normal" font-weight="bold" text-decoration="normal" x="700" y="3505.7333419164024" text-anchor="middle" dominant-baseline="text-after-edge" fill-opacity="1">default[0]</text><path fill="rgb(40,167,69)" stroke="none" paint-order="stroke fill markers" d=" M 600 2689.3333404858913 L 866 2689.3333404858913 L 866 2689.3333404858913 A 8 8 0 0 1 874 2697.3333404858913 L 874 2759.3333404858913 L 874 2759.3333404858913 A 8 8 0 0 1 866 2767.3333404858913 L 334 2767.3333404858913 L 334 2767.3333404858913 A 8 8 0 0 1 326 2759.3333404858913 L 326 2697.3333404858913 L 326 2697.3333404858913 A 8 8 0 0 1 334 2689.3333404858913 L 600 2689.3333404858913 Z" fill-opacity="1"/><text fill="rgb(255,255,255)" stroke="none" font-family="Avenir, Helvetica, Arial, sans-serif" font-size="32px" font-style="normal" font-weight="bold" text-decoration="normal" x="600" y="2744.3333404858913" text-anchor="middle" dominant-baseline="text-after-edge" fill-opacity="1">default</text><path fill="rgb(255,247,224)" stroke="rgb(255,193,7)" paint-order="fill stroke markers" d=" M 2900 1393.000002861023 L 3166 1393.000002861023 L 3166 1393.000002861023 A 8 8 0 0 1 3174 1401.000002861023 L 3174 1463.000002861023 L 3174 1463.000002861023 A 8 8 0 0 1 3166 1471.000002861023 L 2634 1471.000002861023 L 2634 1471.000002861023 A 8 8 0 0 1 2626 1463.000002861023 L 2626 1401.000002861023 L 2626 1401.000002861023 A 8 8 0 0 1 2634 1393.000002861023 L 2900 1393.000002861023 Z" fill-opacity="1" stroke-opacity="1" stroke-miterlimit="10" stroke-width="5"/><text fill="rgb(0,0,0)" stroke="none" font-family="Avenir, Helvetica, Arial, sans-serif" font-size="32px" font-style="normal" font-weight="bold" text-decoration="normal" x="2900" y="1448.000002861023" text-anchor="middle" dominant-baseline="text-after-edge" fill-opacity="1">name</text><path fill="rgb(255,247,224)" stroke="rgb(255,193,7)" paint-order="fill stroke markers" d=" M 2900 1526.0000035762787 L 3166 1526.0000035762787 L 3166 1526.0000035762787 A 8 8 0 0 1 3174 1534.0000035762787 L 3174 1596.0000035762787 L 3174 1596.0000035762787 A 8 8 0 0 1 3166 1604.0000035762787 L 2634 1604.0000035762787 L 2634 1604.0000035762787 A 8 8 0 0 1 2626 1596.0000035762787 L 2626 1534.0000035762787 L 2626 1534.0000035762787 A 8 8 0 0 1 2634 1526.0000035762787 L 2900 1526.0000035762787 Z" fill-opacity="1" stroke-opacity="1" stroke-miterlimit="10" stroke-width="5"/><text fill="rgb(0,0,0)" stroke="none" font-family="Avenir, Helvetica, Arial, sans-serif" font-size="32px" font-style="normal" font-weight="bold" text-decoration="normal" x="2900" y="1581.0000035762787" text-anchor="middle" dominant-baseline="text-after-edge" fill-opacity="1">id</text><path fill="rgb(255,247,224)" stroke="rgb(255,193,7)" paint-order="fill stroke markers" d=" M 2900 1659.0000042915344 L 3166 1659.0000042915344 L 3166 1659.0000042915344 A 8 8 0 0 1 3174 1667.0000042915344 L 3174 1729.0000042915344 L 3174 1729.0000042915344 A 8 8 0 0 1 3166 1737.0000042915344 L 2634 1737.0000042915344 L 2634 1737.0000042915344 A 8 8 0 0 1 2626 1729.0000042915344 L 2626 1667.0000042915344 L 2626 1667.0000042915344 A 8 8 0 0 1 2634 1659.0000042915344 L 2900 1659.0000042915344 Z" fill-opacity="1" stroke-opacity="1" stroke-miterlimit="10" stroke-width="5"/><text fill="rgb(0,0,0)" stroke="none" font-family="Avenir, Helvetica, Arial, sans-serif" font-size="32px" font-style="normal" font-weight="bold" text-decoration="normal" x="2900" y="1714.0000042915344" text-anchor="middle" dominant-baseline="text-after-edge" fill-opacity="1">token</text><path fill="rgb(225,240,255)" stroke="rgb(29,122,218)" paint-order="fill stroke markers" d=" M 2900 2977.8000050067903 L 3166 2977.8000050067903 L 3166 2977.8000050067903 A 8 8 0 0 1 3174 2985.8000050067903 L 3174 3047.8000050067903 L 3174 3047.8000050067903 A 8 8 0 0 1 3166 3055.8000050067903 L 2634 3055.8000050067903 L 2634 3055.8000050067903 A 8 8 0 0 1 2626 3047.8000050067903 L 2626 2985.8000050067903 L 2626 2985.8000050067903 A 8 8 0 0 1 2634 2977.8000050067903 L 2900 2977.8000050067903 Z" fill-opacity="1" stroke-opacity="1" stroke-miterlimit="10" stroke-width="5"/><text fill="rgb(0,0,0)" stroke="none" font-family="Avenir, Helvetica, Arial, sans-serif" font-size="32px" font-style="normal" font-weight="bold" text-decoration="normal" x="2900" y="3032.8000050067903" text-anchor="middle" dominant-baseline="text-after-edge" fill-opacity="1">members</text><path fill="rgb(225,240,255)" stroke="rgb(29,122,218)" paint-order="fill stroke markers" d=" M 2900 3110.800005722046 L 3166 3110.800005722046 L 3166 3110.800005722046 A 8 8 0 0 1 3174 3118.800005722046 L 3174 3180.800005722046 L 3174 3180.800005722046 A 8 8 0 0 1 3166 3188.800005722046 L 2634 3188.800005722046 L 2634 3188.800005722046 A 8 8 0 0 1 2626 3180.800005722046 L 2626 3118.800005722046 L 2626 3118.800005722046 A 8 8 0 0 1 2634 3110.800005722046 L 2900 3110.800005722046 Z" fill-opacity="1" stroke-opacity="1" stroke-miterlimit="10" stroke-width="5"/><text fill="rgb(0,0,0)" stroke="none" font-family="Avenir, Helvetica, Arial, sans-serif" font-size="32px" font-style="normal" font-weight="bold" text-decoration="normal" x="2900" y="3165.800005722046" text-anchor="middle" dominant-baseline="text-after-edge" fill-opacity="1">session_remember_minutes</text><path fill="rgb(225,240,255)" stroke="rgb(29,122,218)" paint-order="fill stroke markers" d=" M 2900 3243.800006437302 L 3166 3243.800006437302 L 3166 3243.800006437302 A 8 8 0 0 1 3174 3251.800006437302 L 3174 3313.800006437302 L 3174 3313.800006437302 A 8 8 0 0 1 3166 3321.800006437302 L 2634 3321.800006437302 L 2634 3321.800006437302 A 8 8 0 0 1 2626 3313.800006437302 L 2626 3251.800006437302 L 2626 3251.800006437302 A 8 8 0 0 1 2634 3243.800006437302 L 2900 3243.800006437302 Z" fill-opacity="1" stroke-opacity="1" stroke-miterlimit="10" stroke-width="5"/><text fill="rgb(0,0,0)" stroke="none" font-family="Avenir, Helvetica, Arial, sans-serif" font-size="32px" font-style="normal" font-weight="bold" text-decoration="normal" x="2900" y="3298.800006437302" text-anchor="middle" dominant-baseline="text-after-edge" fill-opacity="1">owners_team_saml_role_id</text><path fill="rgb(225,240,255)" stroke="rgb(29,122,218)" paint-order="fill stroke markers" d=" M 2900 3376.8000071525576 L 3166 3376.8000071525576 L 3166 3376.8000071525576 A 8 8 0 0 1 3174 3384.8000071525576 L 3174 3446.8000071525576 L 3174 3446.8000071525576 A 8 8 0 0 1 3166 3454.8000071525576 L 2634 3454.8000071525576 L 2634 3454.8000071525576 A 8 8 0 0 1 2626 3446.8000071525576 L 2626 3384.8000071525576 L 2626 3384.8000071525576 A 8 8 0 0 1 2634 3376.8000071525576 L 2900 3376.8000071525576 Z" fill-opacity="1" stroke-opacity="1" stroke-miterlimit="10" stroke-width="5"/><text fill="rgb(0,0,0)" stroke="none" font-family="Avenir, Helvetica, Arial, sans-serif" font-size="32px" font-style="normal" font-weight="bold" text-decoration="normal" x="2900" y="3431.8000071525576" text-anchor="middle" dominant-baseline="text-after-edge" fill-opacity="1">cost_estimation_enabled</text><path fill="rgb(225,240,255)" stroke="rgb(29,122,218)" paint-order="fill stroke markers" d=" M 2900 4174.800011444092 L 3166 4174.800011444092 L 3166 4174.800011444092 A 8 8 0 0 1 3174 4182.800011444092 L 3174 4244.800011444092 L 3174 4244.800011444092 A 8 8 0 0 1 3166 4252.800011444092 L 2634 4252.800011444092 L 2634 4252.800011444092 A 8 8 0 0 1 2626 4244.800011444092 L 2626 4182.800011444092 L 2626 4182.800011444092 A 8 8 0 0 1 2634 4174.800011444092 L 2900 4174.800011444092 Z" fill-opacity="1" stroke-opacity="1" stroke-miterlimit="10" stroke-width="5"/><text fill="rgb(0,0,0)" stroke="none" font-family="Avenir, Helvetica, Arial, sans-serif" font-size="32px" font-style="normal" font-weight="bold" text-decoration="normal" x="2900" y="4229.800011444092" text-anchor="middle" dominant-baseline="text-after-edge" fill-opacity="1">send_passing_statuses_for_untriggered_speculative_plans</text><path fill="rgb(225,240,255)" stroke="rgb(29,122,218)" paint-order="fill stroke markers" d=" M 2900 3509.8000078678133 L 3166 3509.8000078678133 L 3166 3509.8000078678133 A 8 8 0 0 1 3174 3517.8000078678133 L 3174 3579.8000078678133 L 3174 3579.8000078678133 A 8 8 0 0 1 3166 3587.8000078678133 L 2634 3587.8000078678133 L 2634 3587.8000078678133 A 8 8 0 0 1 2626 3579.8000078678133 L 2626 3517.8000078678133 L 2626 3517.8000078678133 A 8 8 0 0 1 2634 3509.8000078678133 L 2900 3509.8000078678133 Z" fill-opacity="1" stroke-opacity="1" stroke-miterlimit="10" stroke-width="5"/><text fill="rgb(0,0,0)" stroke="none" font-family="Avenir, Helvetica, Arial, sans-serif" font-size="32px" font-style="normal" font-weight="bold" text-decoration="normal" x="2900" y="3564.8000078678133" text-anchor="middle" dominant-baseline="text-after-edge" fill-opacity="1">name</text><path fill="rgb(225,240,255)" stroke="rgb(29,122,218)" paint-order="fill stroke markers" d=" M 2900 3642.800008583069 L 3166 3642.800008583069 L 3166 3642.800008583069 A 8 8 0 0 1 3174 3650.800008583069 L 3174 3712.800008583069 L 3174 3712.800008583069 A 8 8 0 0 1 3166 3720.800008583069 L 2634 3720.800008583069 L 2634 3720.800008583069 A 8 8 0 0 1 2626 3712.800008583069 L 2626 3650.800008583069 L 2626 3650.800008583069 A 8 8 0 0 1 2634 3642.800008583069 L 2900 3642.800008583069 Z" fill-opacity="1" stroke-opacity="1" stroke-miterlimit="10" stroke-width="5"/><text fill="rgb(0,0,0)" stroke="none" font-family="Avenir, Helvetica, Arial, sans-serif" font-size="32px" font-style="normal" font-weight="bold" text-decoration="normal" x="2900" y="3697.800008583069" text-anchor="middle" dominant-baseline="text-after-edge" fill-opacity="1">session_timeout_minutes</text><path fill="rgb(225,240,255)" stroke="rgb(29,122,218)" paint-order="fill stroke markers" d=" M 2900 3775.8000092983248 L 3166 3775.8000092983248 L 3166 3775.8000092983248 A 8 8 0 0 1 3174 3783.8000092983248 L 3174 3845.8000092983248 L 3174 3845.8000092983248 A 8 8 0 0 1 3166 3853.8000092983248 L 2634 3853.8000092983248 L 2634 3853.8000092983248 A 8 8 0 0 1 2626 3845.8000092983248 L 2626 3783.8000092983248 L 2626 3783.8000092983248 A 8 8 0 0 1 2634 3775.8000092983248 L 2900 3775.8000092983248 Z" fill-opacity="1" stroke-opacity="1" stroke-miterlimit="10" stroke-width="5"/><text fill="rgb(0,0,0)" stroke="none" font-family="Avenir, Helvetica, Arial, sans-serif" font-size="32px" font-style="normal" font-weight="bold" text-decoration="normal" x="2900" y="3830.8000092983248" text-anchor="middle" dominant-baseline="text-after-edge" fill-opacity="1">collaborator_auth_policy</text><path fill="rgb(225,240,255)" stroke="rgb(29,122,218)" paint-order="fill stroke markers" d=" M 2900 3908.8000100135805 L 3166 3908.8000100135805 L 3166 3908.8000100135805 A 8 8 0 0 1 3174 3916.8000100135805 L 3174 3978.8000100135805 L 3174 3978.8000100135805 A 8 8 0 0 1 3166 3986.8000100135805 L 2634 3986.8000100135805 L 2634 3986.8000100135805 A 8 8 0 0 1 2626 3978.8000100135805 L 2626 3916.8000100135805 L 2626 3916.8000100135805 A 8 8 0 0 1 2634 3908.8000100135805 L 2900 3908.8000100135805 Z" fill-opacity="1" stroke-opacity="1" stroke-miterlimit="10" stroke-width="5"/><text fill="rgb(0,0,0)" stroke="none" font-family="Avenir, Helvetica, Arial, sans-serif" font-size="32px" font-style="normal" font-weight="bold" text-decoration="normal" x="2900" y="3963.8000100135805" text-anchor="middle" dominant-baseline="text-after-edge" fill-opacity="1">email</text><path fill="rgb(225,240,255)" stroke="rgb(29,122,218)" paint-order="fill stroke markers" d=" M 2900 4041.8000107288362 L 3166 4041.8000107288362 L 3166 4041.8000107288362 A 8 8 0 0 1 3174 4049.8000107288362 L 3174 4111.800010728836 L 3174 4111.800010728836 A 8 8 0 0 1 3166 4119.800010728836 L 2634 4119.800010728836 L 2634 4119.800010728836 A 8 8 0 0 1 2626 4111.800010728836 L 2626 4049.8000107288362 L 2626 4049.8000107288362 A 8 8 0 0 1 2634 4041.8000107288362 L 2900 4041.8000107288362 Z" fill-opacity="1" stroke-opacity="1" stroke-miterlimit="10" stroke-width="5"/><text fill="rgb(0,0,0)" stroke="none" font-family="Avenir, Helvetica, Arial, sans-serif" font-size="32px" font-style="normal" font-weight="bold" text-decoration="normal" x="2900" y="4096.800010728836" text-anchor="middle" dominant-baseline="text-after-edge" fill-opacity="1">force_regenerate</text><path fill="rgb(40,167,69)" stroke="none" paint-order="stroke fill markers" d=" M 4003.0000007152557 1493.000002861023 L 4269.000000715256 1493.000002861023 L 4269.000000715256 1493.000002861023 A 8 8 0 0 1 4277.000000715256 1501.000002861023 L 4277.000000715256 1563.000002861023 L 4277.000000715256 1563.000002861023 A 8 8 0 0 1 4269.000000715256 1571.000002861023 L 3737.0000007152557 1571.000002861023 L 3737.0000007152557 1571.000002861023 A 8 8 0 0 1 3729.0000007152557 1563.000002861023 L 3729.0000007152557 1501.000002861023 L 3729.0000007152557 1501.000002861023 A 8 8 0 0 1 3737.0000007152557 1493.000002861023 L 4003.0000007152557 1493.000002861023 Z" fill-opacity="1"/><text fill="rgb(255,255,255)" stroke="none" font-family="Avenir, Helvetica, Arial, sans-serif" font-size="32px" font-style="normal" font-weight="bold" text-decoration="normal" x="4003.0000007152557" y="1548.000002861023" text-anchor="middle" dominant-baseline="text-after-edge" fill-opacity="1">default</text><path fill="rgb(40,167,69)" stroke="none" paint-order="stroke fill markers" d=" M 4103.000000715256 2249.4000042915345 L 4369.000000715256 2249.4000042915345 L 4369.000000715256 2249.4000042915345 A 8 8 0 0 1 4377.000000715256 2257.4000042915345 L 4377.000000715256 2319.4000042915345 L 4377.000000715256 2319.4000042915345 A 8 8 0 0 1 4369.000000715256 2327.4000042915345 L 3837.0000007152557 2327.4000042915345 L 3837.0000007152557 2327.4000042915345 A 8 8 0 0 1 3829.0000007152557 2319.4000042915345 L 3829.0000007152557 2257.4000042915345 L 3829.0000007152557 2257.4000042915345 A 8 8 0 0 1 3837.0000007152557 2249.4000042915345 L 4103.000000715256 2249.4000042915345 Z" fill-opacity="1"/><text fill="rgb(255,255,255)" stroke="none" font-family="Avenir, Helvetica, Arial, sans-serif" font-size="32px" font-style="normal" font-weight="bold" text-decoration="normal" x="4103.000000715256" y="2304.4000042915345" text-anchor="middle" dominant-baseline="text-after-edge" fill-opacity="1">default["dennis.hoppe@dhopp</text><path fill="rgb(40,167,69)" stroke="none" paint-order="stroke fill markers" d=" M 4003.0000007152557 1821.2000035762787 L 4269.000000715256 1821.2000035762787 L 4269.000000715256 1821.2000035762787 A 8 8 0 0 1 4277.000000715256 1829.2000035762787 L 4277.000000715256 1891.2000035762787 L 4277.000000715256 1891.2000035762787 A 8 8 0 0 1 4269.000000715256 1899.2000035762787 L 3737.0000007152557 1899.2000035762787 L 3737.0000007152557 1899.2000035762787 A 8 8 0 0 1 3729.0000007152557 1891.2000035762787 L 3729.0000007152557 1829.2000035762787 L 3729.0000007152557 1829.2000035762787 A 8 8 0 0 1 3737.0000007152557 1821.2000035762787 L 4003.0000007152557 1821.2000035762787 Z" fill-opacity="1"/><text fill="rgb(255,255,255)" stroke="none" font-family="Avenir, Helvetica, Arial, sans-serif" font-size="32px" font-style="normal" font-weight="bold" text-decoration="normal" x="4003.0000007152557" y="1876.2000035762787" text-anchor="middle" dominant-baseline="text-after-edge" fill-opacity="1">default</text><path fill="rgb(0,0,0)" stroke="rgb(0,0,0)" paint-order="fill stroke markers" d=" M 2306.0000014305115 261 L 2572.0000014305115 261 L 2572.0000014305115 261 A 8 8 0 0 1 2580.0000014305115 269 L 2580.0000014305115 331 L 2580.0000014305115 331 A 8 8 0 0 1 2572.0000014305115 339 L 2040.0000014305115 339 L 2040.0000014305115 339 A 8 8 0 0 1 2032.0000014305115 331 L 2032.0000014305115 269 L 2032.0000014305115 269 A 8 8 0 0 1 2040.0000014305115 261 L 2306.0000014305115 261 Z" fill-opacity="1" stroke-opacity="1" stroke-miterlimit="10" stroke-width="5"/><text fill="rgb(255,255,255)" stroke="none" font-family="Avenir, Helvetica, Arial, sans-serif" font-size="32px" font-style="normal" font-weight="bold" text-decoration="normal" x="2306.0000014305115" y="316" text-anchor="middle" dominant-baseline="text-after-edge" fill-opacity="1">team_name</text><path fill="rgb(0,0,0)" stroke="rgb(0,0,0)" paint-order="fill stroke markers" d=" M 2306.0000014305115 394.00000071525574 L 2572.0000014305115 394.00000071525574 L 2572.0000014305115 394.00000071525574 A 8 8 0 0 1 2580.0000014305115 402.00000071525574 L 2580.0000014305115 464.00000071525574 L 2580.0000014305115 464.00000071525574 A 8 8 0 0 1 2572.0000014305115 472.00000071525574 L 2040.0000014305115 472.00000071525574 L 2040.0000014305115 472.00000071525574 A 8 8 0 0 1 2032.0000014305115 464.00000071525574 L 2032.0000014305115 402.00000071525574 L 2032.0000014305115 402.00000071525574 A 8 8 0 0 1 2040.0000014305115 394.00000071525574 L 2306.0000014305115 394.00000071525574 Z" fill-opacity="1" stroke-opacity="1" stroke-miterlimit="10" stroke-width="5"/><text fill="rgb(255,255,255)" stroke="none" font-family="Avenir, Helvetica, Arial, sans-serif" font-size="32px" font-style="normal" font-weight="bold" text-decoration="normal" x="2306.0000014305115" y="449.00000071525574" text-anchor="middle" dominant-baseline="text-after-edge" fill-opacity="1">organization_email</text><path fill="rgb(0,0,0)" stroke="rgb(0,0,0)" paint-order="fill stroke markers" d=" M 2306.0000014305115 527.0000014305115 L 2572.0000014305115 527.0000014305115 L 2572.0000014305115 527.0000014305115 A 8 8 0 0 1 2580.0000014305115 535.0000014305115 L 2580.0000014305115 597.0000014305115 L 2580.0000014305115 597.0000014305115 A 8 8 0 0 1 2572.0000014305115 605.0000014305115 L 2040.0000014305115 605.0000014305115 L 2040.0000014305115 605.0000014305115 A 8 8 0 0 1 2032.0000014305115 597.0000014305115 L 2032.0000014305115 535.0000014305115 L 2032.0000014305115 535.0000014305115 A 8 8 0 0 1 2040.0000014305115 527.0000014305115 L 2306.0000014305115 527.0000014305115 Z" fill-opacity="1" stroke-opacity="1" stroke-miterlimit="10" stroke-width="5"/><text fill="rgb(255,255,255)" stroke="none" font-family="Avenir, Helvetica, Arial, sans-serif" font-size="32px" font-style="normal" font-weight="bold" text-decoration="normal" x="2306.0000014305115" y="582.0000014305115" text-anchor="middle" dominant-baseline="text-after-edge" fill-opacity="1">organization_members</text><path fill="rgb(0,0,0)" stroke="rgb(0,0,0)" paint-order="fill stroke markers" d=" M 2306.0000014305115 660.0000021457672 L 2572.0000014305115 660.0000021457672 L 2572.0000014305115 660.0000021457672 A 8 8 0 0 1 2580.0000014305115 668.0000021457672 L 2580.0000014305115 730.0000021457672 L 2580.0000014305115 730.0000021457672 A 8 8 0 0 1 2572.0000014305115 738.0000021457672 L 2040.0000014305115 738.0000021457672 L 2040.0000014305115 738.0000021457672 A 8 8 0 0 1 2032.0000014305115 730.0000021457672 L 2032.0000014305115 668.0000021457672 L 2032.0000014305115 668.0000021457672 A 8 8 0 0 1 2040.0000014305115 660.0000021457672 L 2306.0000014305115 660.0000021457672 Z" fill-opacity="1" stroke-opacity="1" stroke-miterlimit="10" stroke-width="5"/><text fill="rgb(255,255,255)" stroke="none" font-family="Avenir, Helvetica, Arial, sans-serif" font-size="32px" font-style="normal" font-weight="bold" text-decoration="normal" x="2306.0000014305115" y="715.0000021457672" text-anchor="middle" dominant-baseline="text-after-edge" fill-opacity="1">organization_name</text><path fill="rgb(255,247,224)" stroke="rgb(255,193,7)" paint-order="fill stroke markers" d=" M 1303.0000007152557 261 L 1569.0000007152557 261 L 1569.0000007152557 261 A 8 8 0 0 1 1577.0000007152557 269 L 1577.0000007152557 331 L 1577.0000007152557 331 A 8 8 0 0 1 1569.0000007152557 339 L 1037.0000007152557 339 L 1037.0000007152557 339 A 8 8 0 0 1 1029.0000007152557 331 L 1029.0000007152557 269 L 1029.0000007152557 269 A 8 8 0 0 1 1037.0000007152557 261 L 1303.0000007152557 261 Z" fill-opacity="1" stroke-opacity="1" stroke-miterlimit="10" stroke-width="5"/><text fill="rgb(0,0,0)" stroke="none" font-family="Avenir, Helvetica, Arial, sans-serif" font-size="32px" font-style="normal" font-weight="bold" text-decoration="normal" x="1303.0000007152557" y="316" text-anchor="middle" dominant-baseline="text-after-edge" fill-opacity="1">team_id</text><path fill="rgb(255,247,224)" stroke="rgb(255,193,7)" paint-order="fill stroke markers" d=" M 1303.0000007152557 394.00000071525574 L 1569.0000007152557 394.00000071525574 L 1569.0000007152557 394.00000071525574 A 8 8 0 0 1 1577.0000007152557 402.00000071525574 L 1577.0000007152557 464.00000071525574 L 1577.0000007152557 464.00000071525574 A 8 8 0 0 1 1569.0000007152557 472.00000071525574 L 1037.0000007152557 472.00000071525574 L 1037.0000007152557 472.00000071525574 A 8 8 0 0 1 1029.0000007152557 464.00000071525574 L 1029.0000007152557 402.00000071525574 L 1029.0000007152557 402.00000071525574 A 8 8 0 0 1 1037.0000007152557 394.00000071525574 L 1303.0000007152557 394.00000071525574 Z" fill-opacity="1" stroke-opacity="1" stroke-miterlimit="10" stroke-width="5"/><text fill="rgb(0,0,0)" stroke="none" font-family="Avenir, Helvetica, Arial, sans-serif" font-size="32px" font-style="normal" font-weight="bold" text-decoration="normal" x="1303.0000007152557" y="449.00000071525574" text-anchor="middle" dominant-baseline="text-after-edge" fill-opacity="1">team_token</text><g transform="scale(5,5) translate(-57.7,-9.200000000000001)"/></g></svg>